<svg width="155" height="93" viewBox="0 0 155 93" fill="none" xmlns="http://www.w3.org/2000/svg">
<path d="M25.1914 0C44.3324 0 60.6223 8.79902 66.7197 21.0947C69.5452 20.6848 72.4682 20.4688 75.4609 20.4688C99.7963 20.4688 119.526 34.6893 119.556 52.2393C139.767 53.3615 155 58.3392 155 64.3105C155 69.277 144.462 73.5556 129.287 75.501C123.699 85.3688 91.236 92.9404 52.0244 92.9404C25.0245 92.9404 1.22437 89.35 -12.8057 83.8926C-14.7991 84.0206 -16.835 84.0889 -18.9043 84.0889C-43.2573 84.0889 -62.9994 74.9247 -63 63.6201C-63 52.3153 -43.2577 43.1504 -18.9043 43.1504C-17.9258 43.1504 -16.9548 43.1662 -15.9922 43.1953C-17.8717 39.6598 -18.9043 35.8222 -18.9043 31.8096C-18.9043 14.2416 0.838017 2.2311e-05 25.1914 0Z" fill="#FFEEBA"/>
</svg>
