<svg width="113" height="93" viewBox="0 0 113 93" fill="none" xmlns="http://www.w3.org/2000/svg">
<path d="M110.645 0C134.658 0.000119256 155.097 8.79822 162.747 21.0938C166.291 20.6841 169.957 20.4688 173.711 20.4688C204.241 20.4689 228.995 34.6894 229.031 52.2393C254.387 53.3615 273.499 58.3392 273.499 64.3105C273.499 69.277 260.278 73.5556 241.24 75.501C234.228 85.3686 193.502 92.9404 144.309 92.9404C110.435 92.9404 80.5756 89.35 62.9736 83.8926C60.4727 84.0206 57.9184 84.0889 55.3223 84.0889C24.7693 84.0889 0.000713232 74.9247 0 63.6201C0 52.3153 24.7689 43.1504 55.3223 43.1504C56.5495 43.1504 57.7673 43.1662 58.9746 43.1953C56.6165 39.6598 55.3223 35.8222 55.3223 31.8096C55.3223 14.2416 80.0912 0 110.645 0Z" fill="#FFEEBA"/>
</svg>
