<svg width="363" height="110" viewBox="0 0 363 110" fill="none" xmlns="http://www.w3.org/2000/svg">
<mask id="path-1-outside-1_43_2284" maskUnits="userSpaceOnUse" x="42.7988" y="17.2832" width="292" height="70" fill="black">
<rect fill="white" x="42.7988" y="17.2832" width="292" height="70"/>
<path d="M86.6116 36.0914L81.084 39.1701C78.0753 34.1322 74.0171 32.1031 68.6294 32.1031C64.1513 32.1031 62.2621 33.8524 62.2621 35.8115C62.2621 37.2809 63.3816 38.4704 66.8801 40.0097C68.9792 40.9193 71.918 41.9689 75.9062 43.2283C85.0723 46.1671 91.5795 52.1845 91.5795 62.2601C91.5795 73.6652 81.3639 79.4027 71.3582 79.4027C62.2621 79.4027 49.8075 75.6943 49.8075 65.8985C49.8075 63.7994 50.4372 61.4205 51.6967 58.7616L61.2126 62.47C59.1835 63.4496 58.1339 64.779 58.1339 66.5283C58.1339 71.0063 63.8714 74.5748 70.8684 74.5748C76.1861 74.5748 81.014 72.5457 81.014 68.3475C81.014 62.1901 68.2795 58.9715 63.8015 57.852C55.8249 55.8229 49.5276 51.4148 49.5276 42.4587C49.5276 38.8202 51.1369 34.9719 53.8658 32.1031C58.5537 27.1353 65.6207 26.9953 71.4282 26.9953H73.9471C75.9062 26.9953 78.2852 26.3656 81.084 25.0362L86.6116 36.0914ZM89.7231 32.8028V27.4851H127.787V32.8028H117.081V78.2832H100.918V32.8028H89.7231ZM150.32 31.8232C144.653 31.8232 141.784 35.0418 141.784 41.4791V65.5487C141.784 71.2163 144.723 74.015 150.6 74.015C156.268 74.015 159.136 70.7265 159.136 64.2193V40.1496C159.136 34.622 156.198 31.8232 150.32 31.8232ZM124.921 52.9541C124.921 37.9106 136.396 26.7154 150.6 26.7154C164.804 26.7154 176.419 37.9106 176.419 52.9541C176.419 67.9976 164.804 78.9129 150.6 79.1228C136.396 79.1228 124.921 68.0676 124.921 52.9541ZM180.598 78.2832V27.4851H197.11C214.393 27.4851 222.859 30.3539 222.859 45.3974C222.859 52.4643 221.18 57.1523 217.751 59.6013C214.323 62.0502 211.104 63.3097 208.166 63.3097C208.096 63.4496 208.096 63.7295 208.096 64.1493C208.096 67.5078 211.384 70.7265 217.262 70.7265C219.431 70.7265 221.74 70.3766 224.259 69.6069L218.731 80.5922C205.507 79.1228 200.889 73.1054 198.51 63.3097H196.761V78.2832H180.598ZM196.761 58.3418H199.349C204.317 58.3418 206.766 54.0736 206.766 45.4674C206.766 36.8611 204.317 32.5929 199.349 32.5929H196.761V58.3418ZM226.3 78.2832V27.4851H242.533V78.2832H226.3ZM281.255 78.2832H248.439V27.4851H280.905L282.095 32.5929H264.672V37.4208H282.165L280.485 43.858L277.267 42.5986H264.672V73.2454H281.255V78.2832ZM323.58 36.0914L318.052 39.1701C315.043 34.1322 310.985 32.1031 305.598 32.1031C301.119 32.1031 299.23 33.8524 299.23 35.8115C299.23 37.2809 300.35 38.4704 303.848 40.0097C305.947 40.9193 308.886 41.9689 312.874 43.2283C322.04 46.1671 328.548 52.1845 328.548 62.2601C328.548 73.6652 318.332 79.4027 308.326 79.4027C299.23 79.4027 286.776 75.6943 286.776 65.8985C286.776 63.7994 287.405 61.4205 288.665 58.7616L298.181 62.47C296.152 63.4496 295.102 64.779 295.102 66.5283C295.102 71.0063 300.84 74.5748 307.837 74.5748C313.154 74.5748 317.982 72.5457 317.982 68.3475C317.982 62.1901 305.248 58.9715 300.77 57.852C292.793 55.8229 286.496 51.4148 286.496 42.4587C286.496 38.8202 288.105 34.9719 290.834 32.1031C295.522 27.1353 302.589 26.9953 308.396 26.9953H310.915C312.874 26.9953 315.253 26.3656 318.052 25.0362L323.58 36.0914Z"/>
</mask>
<path d="M86.6116 36.0914L81.084 39.1701C78.0753 34.1322 74.0171 32.1031 68.6294 32.1031C64.1513 32.1031 62.2621 33.8524 62.2621 35.8115C62.2621 37.2809 63.3816 38.4704 66.8801 40.0097C68.9792 40.9193 71.918 41.9689 75.9062 43.2283C85.0723 46.1671 91.5795 52.1845 91.5795 62.2601C91.5795 73.6652 81.3639 79.4027 71.3582 79.4027C62.2621 79.4027 49.8075 75.6943 49.8075 65.8985C49.8075 63.7994 50.4372 61.4205 51.6967 58.7616L61.2126 62.47C59.1835 63.4496 58.1339 64.779 58.1339 66.5283C58.1339 71.0063 63.8714 74.5748 70.8684 74.5748C76.1861 74.5748 81.014 72.5457 81.014 68.3475C81.014 62.1901 68.2795 58.9715 63.8015 57.852C55.8249 55.8229 49.5276 51.4148 49.5276 42.4587C49.5276 38.8202 51.1369 34.9719 53.8658 32.1031C58.5537 27.1353 65.6207 26.9953 71.4282 26.9953H73.9471C75.9062 26.9953 78.2852 26.3656 81.084 25.0362L86.6116 36.0914ZM89.7231 32.8028V27.4851H127.787V32.8028H117.081V78.2832H100.918V32.8028H89.7231ZM150.32 31.8232C144.653 31.8232 141.784 35.0418 141.784 41.4791V65.5487C141.784 71.2163 144.723 74.015 150.6 74.015C156.268 74.015 159.136 70.7265 159.136 64.2193V40.1496C159.136 34.622 156.198 31.8232 150.32 31.8232ZM124.921 52.9541C124.921 37.9106 136.396 26.7154 150.6 26.7154C164.804 26.7154 176.419 37.9106 176.419 52.9541C176.419 67.9976 164.804 78.9129 150.6 79.1228C136.396 79.1228 124.921 68.0676 124.921 52.9541ZM180.598 78.2832V27.4851H197.11C214.393 27.4851 222.859 30.3539 222.859 45.3974C222.859 52.4643 221.18 57.1523 217.751 59.6013C214.323 62.0502 211.104 63.3097 208.166 63.3097C208.096 63.4496 208.096 63.7295 208.096 64.1493C208.096 67.5078 211.384 70.7265 217.262 70.7265C219.431 70.7265 221.74 70.3766 224.259 69.6069L218.731 80.5922C205.507 79.1228 200.889 73.1054 198.51 63.3097H196.761V78.2832H180.598ZM196.761 58.3418H199.349C204.317 58.3418 206.766 54.0736 206.766 45.4674C206.766 36.8611 204.317 32.5929 199.349 32.5929H196.761V58.3418ZM226.3 78.2832V27.4851H242.533V78.2832H226.3ZM281.255 78.2832H248.439V27.4851H280.905L282.095 32.5929H264.672V37.4208H282.165L280.485 43.858L277.267 42.5986H264.672V73.2454H281.255V78.2832ZM323.58 36.0914L318.052 39.1701C315.043 34.1322 310.985 32.1031 305.598 32.1031C301.119 32.1031 299.23 33.8524 299.23 35.8115C299.23 37.2809 300.35 38.4704 303.848 40.0097C305.947 40.9193 308.886 41.9689 312.874 43.2283C322.04 46.1671 328.548 52.1845 328.548 62.2601C328.548 73.6652 318.332 79.4027 308.326 79.4027C299.23 79.4027 286.776 75.6943 286.776 65.8985C286.776 63.7994 287.405 61.4205 288.665 58.7616L298.181 62.47C296.152 63.4496 295.102 64.779 295.102 66.5283C295.102 71.0063 300.84 74.5748 307.837 74.5748C313.154 74.5748 317.982 72.5457 317.982 68.3475C317.982 62.1901 305.248 58.9715 300.77 57.852C292.793 55.8229 286.496 51.4148 286.496 42.4587C286.496 38.8202 288.105 34.9719 290.834 32.1031C295.522 27.1353 302.589 26.9953 308.396 26.9953H310.915C312.874 26.9953 315.253 26.3656 318.052 25.0362L323.58 36.0914Z" fill="white"/>
<path d="M86.6116 36.0914L89.4488 41.1854L94.3209 38.4718L91.8269 33.4838L86.6116 36.0914ZM81.084 39.1701L76.078 42.1598L78.9787 47.0168L83.9212 44.2641L81.084 39.1701ZM66.8801 40.0097L64.5318 45.3467L64.5468 45.3533L64.5618 45.3598L66.8801 40.0097ZM75.9062 43.2283L77.6864 37.6759L77.6743 37.672L77.6621 37.6681L75.9062 43.2283ZM51.6967 58.7616L53.8139 53.3288L48.7526 51.3563L46.4272 56.2655L51.6967 58.7616ZM61.2126 62.47L63.7475 67.721L75.8065 61.8994L63.3298 57.0372L61.2126 62.47ZM63.8015 57.852L62.364 63.5029L62.3756 63.5058L62.3873 63.5087L63.8015 57.852ZM53.8658 32.1031L58.0905 36.1218L58.0985 36.1134L58.1065 36.1049L53.8658 32.1031ZM81.084 25.0362L86.2993 22.4285L83.7438 17.3176L78.5823 19.7693L81.084 25.0362ZM86.6116 36.0914L83.7745 30.9974L78.2468 34.0761L81.084 39.1701L83.9212 44.2641L89.4488 41.1854L86.6116 36.0914ZM81.084 39.1701L86.09 36.1804C84.157 32.9437 81.6909 30.3637 78.5621 28.6402C75.4465 26.9239 72.0648 26.2723 68.6294 26.2723V32.1031V37.9339C70.5816 37.9339 71.9229 38.2969 72.9355 38.8546C73.9349 39.4052 75.0023 40.3586 76.078 42.1598L81.084 39.1701ZM68.6294 32.1031V26.2723C65.7376 26.2723 62.8773 26.8208 60.5512 28.3585C58.0268 30.0271 56.4313 32.7113 56.4313 35.8115H62.2621H68.0929C68.0929 36.2835 67.9722 36.7965 67.71 37.263C67.4518 37.7221 67.1469 37.9776 66.9818 38.0868C66.8305 38.1868 66.8324 38.1429 67.1125 38.0753C67.3905 38.0083 67.8788 37.9339 68.6294 37.9339V32.1031ZM62.2621 35.8115H56.4313C56.4313 38.386 57.5556 40.5272 59.2678 42.1349C60.7236 43.502 62.6165 44.504 64.5318 45.3467L66.8801 40.0097L69.2284 34.6727C68.49 34.3478 67.9809 34.0862 67.6378 33.8845C67.2875 33.6785 67.2021 33.5883 67.2506 33.6338C67.3138 33.6932 67.5599 33.9429 67.7759 34.4061C68.0053 34.8978 68.0929 35.3985 68.0929 35.8115H62.2621ZM66.8801 40.0097L64.5618 45.3598C66.9349 46.3882 70.0962 47.5082 74.1504 48.7885L75.9062 43.2283L77.6621 37.6681C73.7397 36.4295 71.0236 35.4505 69.1985 34.6596L66.8801 40.0097ZM75.9062 43.2283L74.1261 48.7807C78.0366 50.0345 80.9327 51.8078 82.8147 53.9333C84.6073 55.9578 85.7487 58.5915 85.7487 62.2601H91.5795H97.4103C97.4103 55.853 95.2981 50.4403 91.5455 46.2024C87.8825 42.0656 82.9419 39.3609 77.6864 37.6759L75.9062 43.2283ZM91.5795 62.2601H85.7487C85.7487 65.9882 84.1736 68.6011 81.7174 70.4475C79.1002 72.4149 75.3386 73.5719 71.3582 73.5719V79.4027V85.2335C77.3835 85.2335 83.7325 83.5218 88.7246 79.7691C93.8776 75.8955 97.4103 69.9371 97.4103 62.2601H91.5795ZM71.3582 79.4027V73.5719C67.4483 73.5719 63.024 72.751 59.8051 71.1217C56.6532 69.5263 55.6383 67.7747 55.6383 65.8985H49.8075H43.9767C43.9767 73.8181 49.1891 78.8186 54.5385 81.5264C59.821 84.2002 66.172 85.2335 71.3582 85.2335V79.4027ZM49.8075 65.8985H55.6383C55.6383 64.9372 55.9374 63.4296 56.9662 61.2577L51.6967 58.7616L46.4272 56.2655C44.937 59.4114 43.9767 62.6617 43.9767 65.8985H49.8075ZM51.6967 58.7616L49.5795 64.1945L59.0954 67.9029L61.2126 62.47L63.3298 57.0372L53.8139 53.3288L51.6967 58.7616ZM61.2126 62.47L58.6776 57.2191C55.4606 58.7721 52.3031 61.7498 52.3031 66.5283H58.1339H63.9647C63.9647 66.6836 63.9397 66.905 63.8549 67.1566C63.7698 67.4089 63.6513 67.6126 63.5407 67.7569C63.3373 68.0223 63.2702 67.9514 63.7475 67.721L61.2126 62.47ZM58.1339 66.5283H52.3031C52.3031 71.4785 55.467 75.0878 58.7735 77.1669C62.1499 79.29 66.4466 80.4056 70.8684 80.4056V74.5748V68.744C68.2932 68.744 66.2227 68.0754 64.9811 67.2947C63.6696 66.4701 63.9647 66.0561 63.9647 66.5283H58.1339ZM70.8684 74.5748V80.4056C74.1475 80.4056 77.7459 79.7984 80.7508 78.1415C83.9144 76.3971 86.8449 73.1491 86.8449 68.3475H81.014H75.1832C75.1832 68.2096 75.2436 67.975 75.369 67.7923C75.4587 67.6616 75.4521 67.7462 75.1199 67.9294C74.3815 68.3366 72.9071 68.744 70.8684 68.744V74.5748ZM81.014 68.3475H86.8449C86.8449 64.6172 84.8792 61.8299 82.9427 60.014C81.0234 58.2143 78.6513 56.8876 76.5148 55.9092C72.2164 53.9408 67.4171 52.7457 65.2156 52.1953L63.8015 57.852L62.3873 63.5087C64.6639 64.0779 68.4708 65.0518 71.6593 66.5119C73.2661 67.2478 74.3575 67.9502 74.9659 68.5207C75.5571 69.0751 75.1832 68.9991 75.1832 68.3475H81.014ZM63.8015 57.852L65.239 52.2012C61.7829 51.322 59.2872 50.0636 57.717 48.5521C56.3179 47.2054 55.3584 45.3945 55.3584 42.4587H49.5276H43.6968C43.6968 48.479 45.8859 53.3502 49.6297 56.9538C53.2022 60.3927 57.8435 62.3529 62.364 63.5029L63.8015 57.852ZM49.5276 42.4587H55.3584C55.3584 40.4502 56.2966 38.0078 58.0905 36.1218L53.8658 32.1031L49.641 28.0844C45.9773 31.936 43.6968 37.1903 43.6968 42.4587H49.5276ZM53.8658 32.1031L58.1065 36.1049C60.8153 33.2344 65.1857 32.8261 71.4282 32.8261V26.9953V21.1645C66.0556 21.1645 56.2921 21.0361 49.625 28.1013L53.8658 32.1031ZM71.4282 26.9953V32.8261H73.9471V26.9953V21.1645H71.4282V26.9953ZM73.9471 26.9953V32.8261C77.0874 32.8261 80.352 31.8391 83.5858 30.303L81.084 25.0362L78.5823 19.7693C76.2185 20.8921 74.7251 21.1645 73.9471 21.1645V26.9953ZM81.084 25.0362L75.8688 27.6438L81.3964 38.699L86.6116 36.0914L91.8269 33.4838L86.2993 22.4285L81.084 25.0362ZM89.7231 32.8028H83.8923V38.6336H89.7231V32.8028ZM89.7231 27.4851V21.6543H83.8923V27.4851H89.7231ZM127.787 27.4851H133.618V21.6543H127.787V27.4851ZM127.787 32.8028V38.6336H133.618V32.8028H127.787ZM117.081 32.8028V26.972H111.25V32.8028H117.081ZM117.081 78.2832V84.114H122.912V78.2832H117.081ZM100.918 78.2832H95.0875V84.114H100.918V78.2832ZM100.918 32.8028H106.749V26.972H100.918V32.8028ZM89.7231 32.8028H95.5539V27.4851H89.7231H83.8923V32.8028H89.7231ZM89.7231 27.4851V33.3159H127.787V27.4851V21.6543H89.7231V27.4851ZM127.787 27.4851H121.956V32.8028H127.787H133.618V27.4851H127.787ZM127.787 32.8028V26.972H117.081V32.8028V38.6336H127.787V32.8028ZM117.081 32.8028H111.25V78.2832H117.081H122.912V32.8028H117.081ZM117.081 78.2832V72.4524H100.918V78.2832V84.114H117.081V78.2832ZM100.918 78.2832H106.749V32.8028H100.918H95.0875V78.2832H100.918ZM100.918 32.8028V26.972H89.7231V32.8028V38.6336H100.918V32.8028ZM150.6 79.1228V84.9537H150.643L150.686 84.953L150.6 79.1228ZM150.32 31.8232V25.9924C146.382 25.9924 142.421 27.144 139.562 30.3708C136.822 33.4643 135.953 37.5156 135.953 41.4791H141.784H147.615C147.615 39.0053 148.18 38.2287 148.291 38.1036C148.338 38.0513 148.419 37.9708 148.654 37.8819C148.924 37.7803 149.441 37.6541 150.32 37.6541V31.8232ZM141.784 41.4791H135.953V65.5487H141.784H147.615V41.4791H141.784ZM141.784 65.5487H135.953C135.953 69.3365 136.947 73.2357 139.954 76.117C142.913 78.9534 146.832 79.8459 150.6 79.8459V74.015V68.1842C149.575 68.1842 148.91 68.06 148.512 67.9333C148.14 67.8147 148.031 67.7054 148.022 67.6974C148.019 67.6946 147.94 67.6285 147.844 67.3523C147.737 67.0447 147.615 66.4787 147.615 65.5487H141.784ZM150.6 74.015V79.8459C154.576 79.8459 158.543 78.6538 161.389 75.3886C164.104 72.2735 164.967 68.2054 164.967 64.2193H159.136H153.306C153.306 66.7403 152.734 67.5701 152.598 67.7261C152.593 67.732 152.292 68.1842 150.6 68.1842V74.015ZM159.136 64.2193H164.967V40.1496H159.136H153.306V64.2193H159.136ZM159.136 40.1496H164.967C164.967 36.3929 163.952 32.529 160.94 29.6787C157.988 26.8848 154.089 25.9924 150.32 25.9924V31.8232V37.6541C151.345 37.6541 152.014 37.7781 152.418 37.906C152.798 38.0264 152.914 38.1387 152.924 38.1485C152.928 38.1518 153 38.2096 153.088 38.4591C153.187 38.7395 153.306 39.2686 153.306 40.1496H159.136ZM124.921 52.9541H130.752C130.752 41.0896 139.658 32.5463 150.6 32.5463V26.7154V20.8846C133.135 20.8846 119.09 34.7317 119.09 52.9541H124.921ZM150.6 26.7154V32.5463C161.584 32.5463 170.588 41.1309 170.588 52.9541H176.419H182.25C182.25 34.6903 168.024 20.8846 150.6 20.8846V26.7154ZM176.419 52.9541H170.588C170.588 64.6799 161.664 73.1279 150.514 73.2927L150.6 79.1228L150.686 84.953C167.944 84.698 182.25 71.3154 182.25 52.9541H176.419ZM150.6 79.1228V73.292C139.627 73.292 130.752 64.8577 130.752 52.9541H124.921H119.09C119.09 71.2775 133.166 84.9537 150.6 84.9537V79.1228ZM180.598 78.2832H174.767V84.114H180.598V78.2832ZM180.598 27.4851V21.6543H174.767V27.4851H180.598ZM217.751 59.6013L214.362 54.8565V54.8565L217.751 59.6013ZM208.166 63.3097V57.4788H204.562L202.95 60.7021L208.166 63.3097ZM224.259 69.6069L229.467 72.2278L235.597 60.0454L222.555 64.0306L224.259 69.6069ZM218.731 80.5922L218.087 86.3874L222.117 86.8351L223.94 83.2131L218.731 80.5922ZM198.51 63.3097L204.176 61.9336L203.094 57.4788H198.51V63.3097ZM196.761 63.3097V57.4788H190.93V63.3097H196.761ZM196.761 78.2832V84.114H202.591V78.2832H196.761ZM196.761 58.3418H190.93V64.1726H196.761V58.3418ZM196.761 32.5929V26.7621H190.93V32.5929H196.761ZM180.598 78.2832H186.428V27.4851H180.598H174.767V78.2832H180.598ZM180.598 27.4851V33.3159H197.11V27.4851V21.6543H180.598V27.4851ZM197.11 27.4851V33.3159C205.833 33.3159 210.715 34.1289 213.439 35.7836C215.326 36.9298 217.028 39.0171 217.028 45.3974H222.859H228.69C228.69 36.7342 226.159 29.8653 219.493 25.8163C213.663 22.2757 205.67 21.6543 197.11 21.6543V27.4851ZM222.859 45.3974H217.028C217.028 51.8622 215.451 54.079 214.362 54.8565L217.751 59.6013L221.141 64.346C226.909 60.2257 228.69 53.0665 228.69 45.3974H222.859ZM217.751 59.6013L214.362 54.8565C211.487 56.9101 209.446 57.4788 208.166 57.4788V63.3097V69.1405C212.763 69.1405 217.159 67.1903 221.141 64.346L217.751 59.6013ZM208.166 63.3097L202.95 60.7021C202.343 61.9173 202.297 63.0719 202.285 63.2608C202.262 63.6236 202.265 64.0072 202.265 64.1493H208.096H213.926C213.926 64.0349 213.927 63.9774 213.927 63.9336C213.928 63.8887 213.928 63.9191 213.924 63.9882C213.92 64.0475 213.907 64.2456 213.856 64.5154C213.809 64.7641 213.692 65.2946 213.381 65.9172L208.166 63.3097ZM208.096 64.1493H202.265C202.265 71.955 209.546 76.5573 217.262 76.5573V70.7265V64.8956C215.367 64.8956 214.419 64.3813 214.079 64.1142C213.754 63.8586 213.926 63.8303 213.926 64.1493H208.096ZM217.262 70.7265V76.5573C220.072 76.5573 222.956 76.102 225.963 75.1833L224.259 69.6069L222.555 64.0306C220.524 64.6512 218.79 64.8956 217.262 64.8956V70.7265ZM224.259 69.6069L219.05 66.9861L213.522 77.9713L218.731 80.5922L223.94 83.2131L229.467 72.2278L224.259 69.6069ZM218.731 80.5922L219.375 74.7971C213.535 74.1482 210.429 72.5905 208.543 70.8207C206.618 69.0156 205.242 66.322 204.176 61.9336L198.51 63.3097L192.844 64.6857C194.157 70.0931 196.279 75.3061 200.564 79.326C204.887 83.3812 210.703 85.5669 218.087 86.3874L218.731 80.5922ZM198.51 63.3097V57.4788H196.761V63.3097V69.1405H198.51V63.3097ZM196.761 63.3097H190.93V78.2832H196.761H202.591V63.3097H196.761ZM196.761 78.2832V72.4524H180.598V78.2832V84.114H196.761V78.2832ZM196.761 58.3418V64.1726H199.349V58.3418V52.511H196.761V58.3418ZM199.349 58.3418V64.1726C203.904 64.1726 207.693 62.0046 209.974 58.0404C211.968 54.5756 212.597 50.1282 212.597 45.4674H206.766H200.935C200.935 49.4128 200.34 51.4026 199.867 52.2235C199.683 52.5429 199.601 52.541 199.694 52.4878C199.785 52.4355 199.736 52.511 199.349 52.511V58.3418ZM206.766 45.4674H212.597C212.597 40.8065 211.968 36.3591 209.974 32.8943C207.693 28.9301 203.904 26.7621 199.349 26.7621V32.5929V38.4237C199.736 38.4237 199.785 38.4992 199.694 38.4469C199.601 38.3937 199.683 38.3918 199.867 38.7112C200.34 39.5321 200.935 41.5219 200.935 45.4674H206.766ZM199.349 32.5929V26.7621H196.761V32.5929V38.4237H199.349V32.5929ZM196.761 32.5929H190.93V58.3418H196.761H202.591V32.5929H196.761ZM226.3 78.2832H220.47V84.114H226.3V78.2832ZM226.3 27.4851V21.6543H220.47V27.4851H226.3ZM242.533 27.4851H248.364V21.6543H242.533V27.4851ZM242.533 78.2832V84.114H248.364V78.2832H242.533ZM226.3 78.2832H232.131V27.4851H226.3H220.47V78.2832H226.3ZM226.3 27.4851V33.3159H242.533V27.4851V21.6543H226.3V27.4851ZM242.533 27.4851H236.703V78.2832H242.533H248.364V27.4851H242.533ZM242.533 78.2832V72.4524H226.3V78.2832V84.114H242.533V78.2832ZM281.255 78.2832V84.114H287.086V78.2832H281.255ZM248.439 78.2832H242.608V84.114H248.439V78.2832ZM248.439 27.4851V21.6543H242.608V27.4851H248.439ZM280.905 27.4851L286.584 26.1626L285.534 21.6543H280.905V27.4851ZM282.095 32.5929V38.4237H289.439L287.774 31.2704L282.095 32.5929ZM264.672 32.5929V26.7621H258.841V32.5929H264.672ZM264.672 37.4208H258.841V43.2516H264.672V37.4208ZM282.165 37.4208L287.807 38.8926L289.712 31.59H282.165V37.4208ZM280.485 43.858L278.361 49.288L284.471 51.679L286.127 45.3299L280.485 43.858ZM277.267 42.5986L279.392 37.1687L278.367 36.7678H277.267V42.5986ZM264.672 42.5986V36.7678H258.841V42.5986H264.672ZM264.672 73.2454H258.841V79.0762H264.672V73.2454ZM281.255 73.2454H287.086V67.4146H281.255V73.2454ZM281.255 78.2832V72.4524H248.439V78.2832V84.114H281.255V78.2832ZM248.439 78.2832H254.27V27.4851H248.439H242.608V78.2832H248.439ZM248.439 27.4851V33.3159H280.905V27.4851V21.6543H248.439V27.4851ZM280.905 27.4851L275.226 28.8076L276.416 33.9154L282.095 32.5929L287.774 31.2704L286.584 26.1626L280.905 27.4851ZM282.095 32.5929V26.7621H264.672V32.5929V38.4237H282.095V32.5929ZM264.672 32.5929H258.841V37.4208H264.672H270.503V32.5929H264.672ZM264.672 37.4208V43.2516H282.165V37.4208V31.59H264.672V37.4208ZM282.165 37.4208L276.523 35.949L274.843 42.3862L280.485 43.858L286.127 45.3299L287.807 38.8926L282.165 37.4208ZM280.485 43.858L282.61 38.4281L279.392 37.1687L277.267 42.5986L275.142 48.0285L278.361 49.288L280.485 43.858ZM277.267 42.5986V36.7678H264.672V42.5986V48.4294H277.267V42.5986ZM264.672 42.5986H258.841V73.2454H264.672H270.503V42.5986H264.672ZM264.672 73.2454V79.0762H281.255V73.2454V67.4146H264.672V73.2454ZM281.255 73.2454H275.424V78.2832H281.255H287.086V73.2454H281.255ZM323.58 36.0914L326.417 41.1854L331.289 38.4718L328.795 33.4838L323.58 36.0914ZM318.052 39.1701L313.046 42.1598L315.947 47.0168L320.889 44.2641L318.052 39.1701ZM303.848 40.0097L301.5 45.3467L301.515 45.3533L301.53 45.3598L303.848 40.0097ZM312.874 43.2283L314.655 37.6759L314.642 37.672L314.63 37.6681L312.874 43.2283ZM288.665 58.7616L290.782 53.3288L285.721 51.3563L283.395 56.2655L288.665 58.7616ZM298.181 62.47L300.716 67.721L312.775 61.8994L300.298 57.0372L298.181 62.47ZM300.77 57.852L299.332 63.5029L299.344 63.5058L299.355 63.5087L300.77 57.852ZM290.834 32.1031L295.059 36.1218L295.067 36.1134L295.075 36.1049L290.834 32.1031ZM318.052 25.0362L323.267 22.4285L320.712 17.3176L315.55 19.7693L318.052 25.0362ZM323.58 36.0914L320.743 30.9974L315.215 34.0761L318.052 39.1701L320.889 44.2641L326.417 41.1854L323.58 36.0914ZM318.052 39.1701L323.058 36.1804C321.125 32.9437 318.659 30.3637 315.53 28.6402C312.415 26.9239 309.033 26.2723 305.598 26.2723V32.1031V37.9339C307.55 37.9339 308.891 38.2969 309.904 38.8546C310.903 39.4052 311.97 40.3586 313.046 42.1598L318.052 39.1701ZM305.598 32.1031V26.2723C302.706 26.2723 299.845 26.8208 297.519 28.3585C294.995 30.0271 293.399 32.7113 293.399 35.8115H299.23H305.061C305.061 36.2835 304.94 36.7965 304.678 37.263C304.42 37.7221 304.115 37.9776 303.95 38.0868C303.799 38.1868 303.801 38.1429 304.081 38.0753C304.359 38.0083 304.847 37.9339 305.598 37.9339V32.1031ZM299.23 35.8115H293.399C293.399 38.386 294.524 40.5272 296.236 42.1349C297.692 43.502 299.585 44.504 301.5 45.3467L303.848 40.0097L306.197 34.6727C305.458 34.3478 304.949 34.0862 304.606 33.8845C304.256 33.6785 304.17 33.5883 304.219 33.6338C304.282 33.6932 304.528 33.9429 304.744 34.4061C304.973 34.8978 305.061 35.3985 305.061 35.8115H299.23ZM303.848 40.0097L301.53 45.3598C303.903 46.3882 307.064 47.5082 311.119 48.7885L312.874 43.2283L314.63 37.6681C310.708 36.4295 307.992 35.4505 306.167 34.6596L303.848 40.0097ZM312.874 43.2283L311.094 48.7807C315.005 50.0345 317.901 51.8078 319.783 53.9333C321.575 55.9578 322.717 58.5915 322.717 62.2601H328.548H334.378C334.378 55.853 332.266 50.4403 328.514 46.2024C324.851 42.0656 319.91 39.3609 314.655 37.6759L312.874 43.2283ZM328.548 62.2601H322.717C322.717 65.9882 321.142 68.6011 318.685 70.4475C316.068 72.4149 312.307 73.5719 308.326 73.5719V79.4027V85.2335C314.352 85.2335 320.701 83.5218 325.693 79.7691C330.846 75.8955 334.378 69.9371 334.378 62.2601H328.548ZM308.326 79.4027V73.5719C304.416 73.5719 299.992 72.751 296.773 71.1217C293.621 69.5263 292.606 67.7747 292.606 65.8985H286.776H280.945C280.945 73.8181 286.157 78.8186 291.507 81.5264C296.789 84.2002 303.14 85.2335 308.326 85.2335V79.4027ZM286.776 65.8985H292.606C292.606 64.9372 292.906 63.4296 293.934 61.2577L288.665 58.7616L283.395 56.2655C281.905 59.4114 280.945 62.6617 280.945 65.8985H286.776ZM288.665 58.7616L286.548 64.1945L296.063 67.9029L298.181 62.47L300.298 57.0372L290.782 53.3288L288.665 58.7616ZM298.181 62.47L295.646 57.2191C292.429 58.7721 289.271 61.7498 289.271 66.5283H295.102H300.933C300.933 66.6836 300.908 66.905 300.823 67.1566C300.738 67.4089 300.619 67.6126 300.509 67.7569C300.305 68.0223 300.238 67.9514 300.716 67.721L298.181 62.47ZM295.102 66.5283H289.271C289.271 71.4785 292.435 75.0878 295.742 77.1669C299.118 79.29 303.415 80.4056 307.837 80.4056V74.5748V68.744C305.261 68.744 303.191 68.0754 301.949 67.2947C300.638 66.4701 300.933 66.0561 300.933 66.5283H295.102ZM307.837 74.5748V80.4056C311.116 80.4056 314.714 79.7984 317.719 78.1415C320.883 76.3971 323.813 73.1491 323.813 68.3475H317.982H312.151C312.151 68.2096 312.212 67.975 312.337 67.7923C312.427 67.6616 312.42 67.7462 312.088 67.9294C311.35 68.3366 309.875 68.744 307.837 68.744V74.5748ZM317.982 68.3475H323.813C323.813 64.6172 321.847 61.8299 319.911 60.014C317.992 58.2143 315.619 56.8876 313.483 55.9092C309.185 53.9408 304.385 52.7457 302.184 52.1953L300.77 57.852L299.355 63.5087C301.632 64.0779 305.439 65.0518 308.627 66.5119C310.234 67.2478 311.326 67.9502 311.934 68.5207C312.525 69.0751 312.151 68.9991 312.151 68.3475H317.982ZM300.77 57.852L302.207 52.2012C298.751 51.322 296.255 50.0636 294.685 48.5521C293.286 47.2054 292.327 45.3945 292.327 42.4587H286.496H280.665C280.665 48.479 282.854 53.3502 286.598 56.9538C290.17 60.3927 294.812 62.3529 299.332 63.5029L300.77 57.852ZM286.496 42.4587H292.327C292.327 40.4502 293.265 38.0078 295.059 36.1218L290.834 32.1031L286.609 28.0844C282.945 31.936 280.665 37.1903 280.665 42.4587H286.496ZM290.834 32.1031L295.075 36.1049C297.783 33.2344 302.154 32.8261 308.396 32.8261V26.9953V21.1645C303.024 21.1645 293.26 21.0361 286.593 28.1013L290.834 32.1031ZM308.396 26.9953V32.8261H310.915V26.9953V21.1645H308.396V26.9953ZM310.915 26.9953V32.8261C314.056 32.8261 317.32 31.8391 320.554 30.303L318.052 25.0362L315.55 19.7693C313.187 20.8921 311.693 21.1645 310.915 21.1645V26.9953ZM318.052 25.0362L312.837 27.6438L318.365 38.699L323.58 36.0914L328.795 33.4838L323.267 22.4285L318.052 25.0362Z" fill="#141414" mask="url(#path-1-outside-1_43_2284)"/>
<path d="M343.904 60.0567C343.161 63.6911 344.249 67.4794 346.806 70.1669C343.171 69.4241 339.383 70.5114 336.696 73.0683C337.438 69.4339 336.351 65.6454 333.794 62.9582C337.429 63.7012 341.217 62.6141 343.904 60.0567Z" fill="#F9FF47" stroke="#141414" stroke-width="1.00513"/>
<path d="M163.688 46.8462C163.044 50.4994 164.234 54.2568 166.863 56.8737C163.21 56.2301 159.452 57.42 156.836 60.049C157.479 56.3958 156.29 52.6382 153.66 50.0216C157.314 50.6655 161.071 49.4757 163.688 46.8462Z" fill="#F9FF47" stroke="#141414" stroke-width="1.00513"/>
<path d="M27.3435 84.0082C32.4387 81.6678 37.2499 79.9918 40.9074 79.1736C42.7374 78.7643 44.2702 78.5718 45.4014 78.6139C45.9668 78.635 46.4225 78.7143 46.7622 78.8485C47.1012 78.9825 47.312 79.1656 47.4134 79.3865C47.5236 79.6266 47.5372 79.8386 47.4727 80.0396C47.4063 80.246 47.2517 80.4602 46.9894 80.6882C46.4609 81.1476 45.5491 81.6209 44.2635 82.1821C41.7152 83.2946 37.7177 84.7419 32.6205 87.0833C30.0664 88.2565 27.4705 89.5454 25.0002 90.7846C22.5288 92.0244 20.184 93.2138 18.1264 94.1882C16.0671 95.1634 14.3057 95.9192 13.0002 96.2958C12.3457 96.4845 11.8199 96.5729 11.4347 96.5538C11.0502 96.5348 10.8489 96.4128 10.7613 96.2226C10.6599 96.0017 10.6574 95.7229 10.7766 95.3785C10.8961 95.0332 11.1335 94.6357 11.4861 94.1928C12.1912 93.3072 13.3357 92.2699 14.8387 91.1483C17.8424 88.9067 22.2484 86.3487 27.3435 84.0082Z" fill="#00A652" stroke="#141414" stroke-width="0.335044"/>
<path d="M37.7316 89.1938C40.6307 86.5879 43.5975 85.0165 45.9682 84.2469C47.1542 83.8619 48.186 83.6786 48.9824 83.6647C49.3806 83.6578 49.7152 83.693 49.9784 83.7634C50.2431 83.8342 50.4236 83.9373 50.5299 84.0555C50.6353 84.1729 50.6606 84.2778 50.6387 84.3884C50.6139 84.5131 50.5245 84.6685 50.3459 84.8617C49.9892 85.2478 49.3477 85.7149 48.4688 86.3218C46.7221 87.528 44.0977 89.2464 41.1722 91.8761C38.2491 94.5037 35.5756 97.5464 33.5076 99.7689C32.4703 100.884 31.5901 101.787 30.9043 102.336C30.56 102.612 30.2783 102.787 30.0597 102.86C29.8465 102.932 29.734 102.897 29.6604 102.815C29.5656 102.709 29.5001 102.512 29.4989 102.198C29.4977 101.89 29.5585 101.497 29.682 101.032C29.929 100.102 30.4207 98.9113 31.1308 97.5893C32.5506 94.9462 34.832 91.8003 37.7316 89.1938Z" fill="#00A652" stroke="#141414" stroke-width="0.335044"/>
<path d="M35.1718 73.3283C38.1294 73.2144 40.812 73.3595 42.7566 73.685C43.7301 73.848 44.5103 74.0546 45.0453 74.2917C45.313 74.4104 45.5102 74.5334 45.6398 74.6548C45.7688 74.7758 45.8187 74.8841 45.8223 74.9791C45.8259 75.0741 45.7846 75.1859 45.6653 75.3165C45.5454 75.4475 45.3582 75.5854 45.1005 75.7242C44.5853 76.0018 43.8234 76.2678 42.8652 76.5052C40.9514 76.9794 38.2879 77.3305 35.3304 77.4444C32.3727 77.5584 29.6902 77.4132 27.7456 77.0877C26.7719 76.9247 25.9919 76.7181 25.4568 76.481C25.1891 76.3624 24.9919 76.2394 24.8623 76.1179C24.7333 75.9969 24.6835 75.8886 24.6798 75.7936C24.6761 75.6987 24.7175 75.5869 24.8369 75.4563C24.9567 75.3252 25.1438 75.1874 25.4017 75.0485C25.9169 74.771 26.6787 74.505 27.6369 74.2675C29.5507 73.7934 32.2141 73.4423 35.1718 73.3283Z" fill="#00A652" stroke="#141414" stroke-width="0.335044"/>
<path d="M348.087 46.1882C344.559 48.4704 340.545 50.2341 337.293 51.2377C335.666 51.7396 334.234 52.0497 333.153 52.1414C332.611 52.1872 332.164 52.1785 331.825 52.1139C331.483 52.0486 331.277 51.9316 331.183 51.7863C331.103 51.6626 331.114 51.4693 331.299 51.1714C331.48 50.8798 331.803 50.5282 332.25 50.1258C333.142 49.3229 334.501 48.3422 336.116 47.2616C339.349 45.099 343.577 42.5598 347.122 40.266C348.893 39.1206 350.321 38.1476 351.48 37.3568C352.641 36.5652 353.531 35.9587 354.229 35.5421C354.932 35.1229 355.421 34.9091 355.785 34.8819C355.963 34.8688 356.108 34.8998 356.234 34.9718C356.363 35.0447 356.481 35.1656 356.596 35.3438C356.811 35.677 356.852 36.2244 356.653 36.9576C356.455 37.6861 356.027 38.5746 355.345 39.5636C353.982 41.5408 351.614 43.9063 348.087 46.1882Z" fill="#7A78FF" stroke="#141414" stroke-width="0.25143"/>
<path d="M337.319 43.461C335.446 45.708 333.411 47.1942 331.733 48.0205C330.894 48.4338 330.147 48.6802 329.557 48.7761C329.262 48.824 329.01 48.8342 328.807 48.8102C328.603 48.786 328.458 48.7289 328.366 48.6526C328.275 48.5766 328.244 48.5011 328.249 48.4163C328.254 48.3212 328.304 48.1969 328.416 48.0344C328.64 47.7093 329.066 47.2934 329.654 46.7483C330.821 45.6648 332.585 44.106 334.475 41.8386C336.364 39.5731 338.023 37.0262 339.32 35.1533C339.97 34.2138 340.527 33.4481 340.978 32.9665C341.204 32.7246 341.395 32.5648 341.549 32.4868C341.7 32.4107 341.787 32.4246 341.851 32.4775C341.932 32.5456 342.002 32.6848 342.037 32.9175C342.071 33.1463 342.068 33.4451 342.026 33.8039C341.943 34.5209 341.705 35.4585 341.32 36.5167C340.549 38.6322 339.193 41.2137 337.319 43.461Z" fill="#7A78FF" stroke="#141414" stroke-width="0.25143"/>
<path d="M340.926 54.9682C338.742 55.3705 336.734 55.5511 335.255 55.5183C334.515 55.5019 333.913 55.4317 333.49 55.3131C333.279 55.2538 333.118 55.1843 333.009 55.1079C332.9 55.0319 332.852 54.9562 332.839 54.886C332.826 54.816 332.844 54.7286 332.919 54.6191C332.994 54.5088 333.119 54.3866 333.296 54.2557C333.648 53.9943 334.185 53.7145 334.871 53.4352C336.242 52.8775 338.182 52.3299 340.366 51.9275C342.55 51.5251 344.559 51.3453 346.038 51.3781C346.778 51.3946 347.38 51.4648 347.802 51.5833C348.014 51.6427 348.175 51.7122 348.284 51.7885C348.393 51.8644 348.441 51.9395 348.454 52.0095C348.467 52.0796 348.449 52.1676 348.374 52.2774C348.299 52.3877 348.174 52.5098 347.997 52.6407C347.644 52.9022 347.108 53.182 346.422 53.4613C345.051 54.019 343.11 54.5658 340.926 54.9682Z" fill="#7A78FF" stroke="#141414" stroke-width="0.25143"/>
<mask id="path-11-inside-2_43_2284" fill="white">
<path d="M37.3263 0C45.3726 0 52.2208 2.94828 54.7833 7.06836C55.9699 6.93129 57.1975 6.8584 58.4542 6.8584C68.6826 6.85845 76.9751 11.6225 76.9884 17.502C85.4831 17.878 91.8861 19.5454 91.8868 21.5459C91.8868 23.2098 87.4573 24.6421 81.0792 25.2939C78.7318 28.6004 65.0869 31.1386 48.6036 31.1387C37.2528 31.1387 27.2468 29.9354 21.3497 28.1064C20.5122 28.1493 19.6566 28.1738 18.7872 28.1738C8.5507 28.1737 0.252076 25.103 0.252075 21.3154C0.252075 17.5279 8.5507 14.4571 18.7872 14.457C19.2002 14.457 19.6104 14.4638 20.0167 14.4736C19.2258 13.2886 18.7911 12.0024 18.7911 10.6572C18.7911 4.77126 27.0897 8.53551e-05 37.3263 0Z"/>
</mask>
<path d="M37.3263 0C45.3726 0 52.2208 2.94828 54.7833 7.06836C55.9699 6.93129 57.1975 6.8584 58.4542 6.8584C68.6826 6.85845 76.9751 11.6225 76.9884 17.502C85.4831 17.878 91.8861 19.5454 91.8868 21.5459C91.8868 23.2098 87.4573 24.6421 81.0792 25.2939C78.7318 28.6004 65.0869 31.1386 48.6036 31.1387C37.2528 31.1387 27.2468 29.9354 21.3497 28.1064C20.5122 28.1493 19.6566 28.1738 18.7872 28.1738C8.5507 28.1737 0.252076 25.103 0.252075 21.3154C0.252075 17.5279 8.5507 14.4571 18.7872 14.457C19.2002 14.457 19.6104 14.4638 20.0167 14.4736C19.2258 13.2886 18.7911 12.0024 18.7911 10.6572C18.7911 4.77126 27.0897 8.53551e-05 37.3263 0Z" fill="#FFF6C9"/>
<path d="M37.3263 0V-0.670088H37.3263L37.3263 0ZM54.7833 7.06836L54.2143 7.42226L54.4385 7.78273L54.8602 7.73402L54.7833 7.06836ZM58.4542 6.8584L58.4542 6.18831H58.4542V6.8584ZM76.9884 17.502L76.3183 17.5035L76.3198 18.1431L76.9588 18.1714L76.9884 17.502ZM91.8868 21.5459H92.5569V21.5457L91.8868 21.5459ZM81.0792 25.2939L81.0111 24.6273L80.7088 24.6582L80.5328 24.906L81.0792 25.2939ZM48.6036 31.1387V31.8088V31.1387ZM21.3497 28.1064L21.5482 27.4664L21.4345 27.4311L21.3155 27.4372L21.3497 28.1064ZM18.7872 28.1738L18.7872 28.8439H18.7872V28.1738ZM0.252075 21.3154H-0.418012H0.252075ZM18.7872 14.457V13.7869H18.7872L18.7872 14.457ZM20.0167 14.4736L20.0005 15.1435L21.2902 15.1748L20.5741 14.1017L20.0167 14.4736ZM18.7911 10.6572L18.121 10.6572V10.6572H18.7911ZM37.3263 0V0.670088C41.2709 0.670088 44.9067 1.39327 47.8559 2.60869C50.8147 3.82805 53.0316 5.52063 54.2143 7.42226L54.7833 7.06836L55.3523 6.71446C53.9725 4.49601 51.4841 2.65441 48.3666 1.36961C45.2394 0.0808662 41.428 -0.670088 37.3263 -0.670088V0ZM54.7833 7.06836L54.8602 7.73402C56.0214 7.59988 57.2233 7.52849 58.4542 7.52849V6.8584V6.18831C57.1716 6.18831 55.9184 6.2627 54.7064 6.4027L54.7833 7.06836ZM58.4542 6.8584L58.4542 7.52849C63.4728 7.52851 67.9836 8.69868 71.2182 10.5565C74.4711 12.4247 76.3124 14.9052 76.3183 17.5035L76.9884 17.502L77.6585 17.5004C77.651 14.2192 75.3395 11.378 71.8857 9.39433C68.4137 7.40022 63.6641 6.18834 58.4542 6.18831L58.4542 6.8584ZM76.9884 17.502L76.9588 18.1714C81.177 18.3581 84.8494 18.8649 87.4493 19.562C88.7544 19.9119 89.7512 20.2999 90.4064 20.6963C91.1043 21.1185 91.2167 21.4242 91.2168 21.5461L91.8868 21.5459L92.5569 21.5457C92.5566 20.6673 91.8684 20.0144 91.1001 19.5496C90.289 19.059 89.154 18.6315 87.7964 18.2675C85.071 17.5368 81.2945 17.0218 77.018 16.8325L76.9884 17.502ZM91.8868 21.5459H91.2168C91.2168 21.6422 91.1505 21.8695 90.6982 22.2019C90.2623 22.5223 89.5822 22.8512 88.6591 23.165C86.8213 23.7899 84.1748 24.304 81.0111 24.6273L81.0792 25.2939L81.1474 25.9606C84.3617 25.6321 87.119 25.1041 89.0905 24.4339C90.0721 24.1001 90.898 23.7183 91.4919 23.2818C92.0695 22.8573 92.5569 22.2815 92.5569 21.5459H91.8868ZM81.0792 25.2939L80.5328 24.906C80.071 25.5566 78.9483 26.2777 77.0964 26.975C75.2807 27.6587 72.8826 28.2771 70.0225 28.7969C64.3056 29.8361 56.8149 30.4686 48.6036 30.4686V31.1387V31.8088C56.8756 31.8087 64.449 31.1721 70.2622 30.1155C73.1671 29.5875 75.6506 28.9514 77.5687 28.2292C79.4505 27.5206 80.9137 26.6845 81.6256 25.6819L81.0792 25.2939ZM48.6036 31.1387V30.4686C37.2824 30.4686 27.3529 29.2667 21.5482 27.4664L21.3497 28.1064L21.1512 28.7465C27.1407 30.604 37.2232 31.8088 48.6036 31.8088V31.1387ZM21.3497 28.1064L21.3155 27.4372C20.4882 27.4796 19.644 27.5037 18.7872 27.5037V28.1738V28.8439C19.6691 28.8439 20.5363 28.819 21.384 28.7757L21.3497 28.1064ZM18.7872 28.1738L18.7872 27.5037C13.7272 27.5037 9.17575 26.7436 5.91349 25.5365C4.27977 24.932 3.00448 24.2282 2.14988 23.4806C1.29391 22.7318 0.922163 21.9983 0.922163 21.3154H0.252075H-0.418012C-0.418012 22.5264 0.247564 23.597 1.26748 24.4893C2.28876 25.3827 3.72791 26.1568 5.44841 26.7934C8.89461 28.0686 13.6107 28.8439 18.7872 28.8439L18.7872 28.1738ZM0.252075 21.3154H0.922163C0.922163 20.6326 1.29391 19.8991 2.14988 19.1503C3.00448 18.4027 4.27977 17.6989 5.91349 17.0944C9.17575 15.8873 13.7272 15.1272 18.7872 15.1271L18.7872 14.457L18.7872 13.7869C13.6107 13.787 8.89461 14.5623 5.44841 15.8375C3.72791 16.4741 2.28876 17.2482 1.26748 18.1416C0.247564 19.0338 -0.418012 20.1045 -0.418012 21.3154H0.252075ZM18.7872 14.457V15.1271C19.1931 15.1271 19.5976 15.1338 20.0005 15.1435L20.0167 14.4736L20.033 13.8037C19.6233 13.7938 19.2074 13.7869 18.7872 13.7869V14.457ZM20.0167 14.4736L20.5741 14.1017C19.8458 13.0104 19.4612 11.8516 19.4612 10.6572H18.7911H18.121C18.121 12.1531 18.6059 13.5667 19.4594 14.8456L20.0167 14.4736ZM18.7911 10.6572L19.4612 10.6572C19.4612 8.05639 21.3004 5.57303 24.554 3.70232C27.7894 1.84206 32.3037 0.670129 37.3263 0.670088L37.3263 0L37.3263 -0.670088C32.1123 -0.670044 27.359 0.543649 23.886 2.54049C20.4312 4.52689 18.1211 7.37209 18.121 10.6572L18.7911 10.6572Z" fill="#141414" mask="url(#path-11-inside-2_43_2284)"/>
<mask id="path-13-inside-3_43_2284" fill="white">
<path d="M304.646 70.7344C312.692 70.7344 319.539 73.6829 322.102 77.8027C323.29 77.6654 324.519 77.5928 325.777 77.5928C336.007 77.5928 344.3 82.358 344.311 88.2383C352.806 88.6143 359.209 90.2818 359.21 92.2822C359.21 93.9462 354.78 95.3785 348.402 96.0303C346.054 99.3367 332.41 101.875 315.926 101.875C304.573 101.875 294.565 100.671 288.669 98.8408C287.833 98.8835 286.979 98.9082 286.111 98.9082C275.874 98.9082 267.576 95.8374 267.576 92.0498C267.576 88.2623 275.875 85.1924 286.111 85.1924C286.523 85.1924 286.932 85.1982 287.337 85.208C286.546 84.023 286.111 82.7367 286.111 81.3916C286.111 75.5057 294.41 70.7344 304.646 70.7344Z"/>
</mask>
<path d="M304.646 70.7344C312.692 70.7344 319.539 73.6829 322.102 77.8027C323.29 77.6654 324.519 77.5928 325.777 77.5928C336.007 77.5928 344.3 82.358 344.311 88.2383C352.806 88.6143 359.209 90.2818 359.21 92.2822C359.21 93.9462 354.78 95.3785 348.402 96.0303C346.054 99.3367 332.41 101.875 315.926 101.875C304.573 101.875 294.565 100.671 288.669 98.8408C287.833 98.8835 286.979 98.9082 286.111 98.9082C275.874 98.9082 267.576 95.8374 267.576 92.0498C267.576 88.2623 275.875 85.1924 286.111 85.1924C286.523 85.1924 286.932 85.1982 287.337 85.208C286.546 84.023 286.111 82.7367 286.111 81.3916C286.111 75.5057 294.41 70.7344 304.646 70.7344Z" fill="#FFF6C9"/>
<path d="M304.646 70.7344V70.0643V70.7344ZM322.102 77.8027L321.533 78.1567L321.758 78.5172L322.179 78.4684L322.102 77.8027ZM325.777 77.5928V76.9227L325.777 76.9227L325.777 77.5928ZM344.311 88.2383L343.641 88.2396L343.642 88.8794L344.282 88.9077L344.311 88.2383ZM359.21 92.2822H359.88V92.2819L359.21 92.2822ZM348.402 96.0303L348.334 95.3637L348.032 95.3946L347.856 95.6423L348.402 96.0303ZM315.926 101.875V102.545V101.875ZM288.669 98.8408L288.867 98.2008L288.753 98.1655L288.634 98.1716L288.669 98.8408ZM286.111 98.9082V99.5783V98.9082ZM267.576 92.0498L266.906 92.0497V92.0498H267.576ZM286.111 85.1924V84.5223V85.1924ZM287.337 85.208L287.32 85.8779L288.61 85.909L287.894 84.836L287.337 85.208ZM286.111 81.3916L285.441 81.3916V81.3916H286.111ZM304.646 70.7344V71.4045C308.591 71.4045 312.226 72.1277 315.175 73.3432C318.134 74.5625 320.35 76.2551 321.533 78.1567L322.102 77.8027L322.671 77.4488C321.291 75.2305 318.803 73.3889 315.686 72.1041C312.559 70.8153 308.748 70.0643 304.646 70.0643V70.7344ZM322.102 77.8027L322.179 78.4684C323.341 78.334 324.545 78.2629 325.777 78.2629L325.777 77.5928L325.777 76.9227C324.493 76.9227 323.239 76.9967 322.025 77.1371L322.102 77.8027ZM325.777 77.5928V78.2629C330.796 78.2629 335.307 79.4333 338.542 81.2915C341.795 83.1601 343.636 85.641 343.641 88.2396L344.311 88.2383L344.981 88.2369C344.975 84.9552 342.663 82.1135 339.21 80.1294C335.738 78.1349 330.987 76.9227 325.777 76.9227V77.5928ZM344.311 88.2383L344.282 88.9077C348.5 89.0944 352.172 89.6012 354.772 90.2983C356.077 90.6482 357.074 91.0363 357.729 91.4326C358.427 91.8548 358.54 92.1606 358.54 92.2826L359.21 92.2822L359.88 92.2819C359.879 91.4036 359.191 90.7508 358.423 90.286C357.612 89.7953 356.477 89.3679 355.119 89.0039C352.394 88.2731 348.617 87.7581 344.341 87.5688L344.311 88.2383ZM359.21 92.2822H358.54C358.54 92.3786 358.473 92.6058 358.021 92.9382C357.585 93.2586 356.905 93.5876 355.982 93.9014C354.144 94.5262 351.498 95.0403 348.334 95.3637L348.402 96.0303L348.47 96.6969C351.685 96.3684 354.442 95.8405 356.413 95.1702C357.395 94.8365 358.221 94.4546 358.815 94.0181C359.392 93.5936 359.88 93.0179 359.88 92.2822H359.21ZM348.402 96.0303L347.856 95.6423C347.394 96.2929 346.271 97.014 344.419 97.7113C342.603 98.395 340.205 99.0134 337.345 99.5333C331.628 100.572 324.138 101.205 315.926 101.205V101.875V102.545C324.198 102.545 331.772 101.908 337.585 100.852C340.49 100.324 342.973 99.6877 344.891 98.9655C346.773 98.257 348.236 97.4209 348.948 96.4182L348.402 96.0303ZM315.926 101.875V101.205C304.602 101.205 294.671 100.002 288.867 98.2008L288.669 98.8408L288.47 99.4808C294.459 101.339 304.543 102.545 315.926 102.545V101.875ZM288.669 98.8408L288.634 98.1716C287.808 98.2138 286.966 98.2381 286.111 98.2381V98.9082V99.5783C286.992 99.5783 287.857 99.5532 288.703 99.51L288.669 98.8408ZM286.111 98.9082V98.2381C281.051 98.2381 276.499 97.478 273.237 96.2709C271.604 95.6664 270.328 94.9626 269.474 94.215C268.618 93.4662 268.246 92.7327 268.246 92.0498H267.576H266.906C266.906 93.2608 267.571 94.3314 268.591 95.2237C269.613 96.1171 271.052 96.8912 272.772 97.5278C276.218 98.803 280.934 99.5783 286.111 99.5783V98.9082ZM267.576 92.0498L268.246 92.0499C268.246 91.367 268.618 90.6336 269.474 89.8848C270.328 89.1373 271.604 88.4336 273.237 87.8292C276.5 86.6223 281.051 85.8625 286.111 85.8625V85.1924V84.5223C280.935 84.5223 276.219 85.2974 272.772 86.5723C271.052 87.2088 269.613 87.9828 268.591 88.8761C267.572 89.7682 266.906 90.8388 266.906 92.0497L267.576 92.0498ZM286.111 85.1924V85.8625C286.517 85.8625 286.92 85.8682 287.32 85.8779L287.337 85.208L287.353 84.5381C286.943 84.5282 286.529 84.5223 286.111 84.5223V85.1924ZM287.337 85.208L287.894 84.836C287.166 83.7448 286.781 82.586 286.781 81.3916H286.111H285.441C285.441 82.8875 285.926 84.3011 286.779 85.58L287.337 85.208ZM286.111 81.3916L286.781 81.3916C286.781 78.7908 288.62 76.3074 291.874 74.4367C295.109 72.5764 299.624 71.4045 304.646 71.4045V70.7344V70.0643C299.432 70.0643 294.679 71.278 291.206 73.2749C287.751 75.2613 285.441 78.1065 285.441 81.3916L286.111 81.3916Z" fill="#141414" mask="url(#path-13-inside-3_43_2284)"/>
</svg>
