<svg width="367" height="95" viewBox="0 0 367 95" fill="none" xmlns="http://www.w3.org/2000/svg">
<mask id="path-1-outside-1_11_2008" maskUnits="userSpaceOnUse" x="39.6016" y="-0.0976562" width="299" height="72" fill="black">
<rect fill="white" x="39.6016" y="-0.0976562" width="299" height="72"/>
<path d="M84.3167 19.7543L78.6638 22.9027C75.5869 17.7507 71.4367 15.6756 65.9269 15.6756C61.3474 15.6756 59.4154 17.4645 59.4154 19.4681C59.4154 20.9707 60.5603 22.1872 64.138 23.7614C66.2847 24.6916 69.29 25.765 73.3687 27.053C82.7425 30.0583 89.3972 36.2121 89.3972 46.5161C89.3972 58.1797 78.9501 64.0472 68.7176 64.0472C59.4154 64.0472 46.6785 60.2548 46.6785 50.237C46.6785 48.0903 47.3225 45.6574 48.6105 42.9383L58.342 46.7308C56.2669 47.7325 55.1936 49.0921 55.1936 50.881C55.1936 55.4606 61.0611 59.1099 68.2167 59.1099C73.6549 59.1099 78.5923 57.0348 78.5923 52.7414C78.5923 46.4445 65.5691 43.153 60.9896 42.0081C52.8322 39.933 46.3922 35.425 46.3922 26.2658C46.3922 22.545 48.038 18.6094 50.8287 15.6756C55.6229 10.5952 62.85 10.452 68.7892 10.452H71.3652C73.3687 10.452 75.8016 9.80804 78.6638 8.44849L84.3167 19.7543ZM87.4987 16.3912V10.9529H126.425V16.3912H115.477V62.9023H98.9476V16.3912H87.4987ZM149.469 15.3894C143.673 15.3894 140.739 18.6809 140.739 25.2641V49.8792C140.739 55.6752 143.745 58.5374 149.755 58.5374C155.552 58.5374 158.485 55.1743 158.485 48.5197V23.9045C158.485 18.2516 155.48 15.3894 149.469 15.3894ZM123.495 36.9992C123.495 21.6147 135.23 10.1658 149.755 10.1658C164.281 10.1658 176.16 21.6147 176.16 36.9992C176.16 52.3837 164.281 63.5463 149.755 63.761C135.23 63.761 123.495 52.4552 123.495 36.9992ZM180.433 62.9023V10.9529H197.32C214.994 10.9529 223.652 13.8867 223.652 29.2712C223.652 36.4983 221.935 41.2925 218.429 43.797C214.923 46.3014 211.631 47.5894 208.626 47.5894C208.554 47.7325 208.554 48.0188 208.554 48.4481C208.554 51.8828 211.917 55.1743 217.928 55.1743C220.146 55.1743 222.507 54.8166 225.083 54.0294L219.431 65.2637C205.907 63.761 201.184 57.6072 198.751 47.5894H196.962V62.9023H180.433ZM196.962 42.509H199.61C204.69 42.509 207.195 38.1441 207.195 29.3427C207.195 20.5414 204.69 16.1765 199.61 16.1765H196.962V42.509ZM227.171 62.9023V10.9529H243.772V62.9023H227.171ZM283.372 62.9023H249.812V10.9529H283.014L284.23 16.1765H266.413V21.1138H284.302L282.585 27.697L279.293 26.409H266.413V57.7503H283.372V62.9023ZM326.656 19.7543L321.003 22.9027C317.926 17.7507 313.776 15.6756 308.266 15.6756C303.686 15.6756 301.754 17.4645 301.754 19.4681C301.754 20.9707 302.899 22.1872 306.477 23.7614C308.624 24.6916 311.629 25.765 315.708 27.053C325.081 30.0583 331.736 36.2121 331.736 46.5161C331.736 58.1797 321.289 64.0472 311.056 64.0472C301.754 64.0472 289.017 60.2548 289.017 50.237C289.017 48.0903 289.661 45.6574 290.949 42.9383L300.681 46.7308C298.606 47.7325 297.532 49.0921 297.532 50.881C297.532 55.4606 303.4 59.1099 310.556 59.1099C315.994 59.1099 320.931 57.0348 320.931 52.7414C320.931 46.4445 307.908 43.153 303.328 42.0081C295.171 39.933 288.731 35.425 288.731 26.2658C288.731 22.545 290.377 18.6094 293.168 15.6756C297.962 10.5952 305.189 10.452 311.128 10.452H313.704C315.708 10.452 318.14 9.80804 321.003 8.44849L326.656 19.7543Z"/>
</mask>
<path d="M84.3167 19.7543L78.6638 22.9027C75.5869 17.7507 71.4367 15.6756 65.9269 15.6756C61.3474 15.6756 59.4154 17.4645 59.4154 19.4681C59.4154 20.9707 60.5603 22.1872 64.138 23.7614C66.2847 24.6916 69.29 25.765 73.3687 27.053C82.7425 30.0583 89.3972 36.2121 89.3972 46.5161C89.3972 58.1797 78.9501 64.0472 68.7176 64.0472C59.4154 64.0472 46.6785 60.2548 46.6785 50.237C46.6785 48.0903 47.3225 45.6574 48.6105 42.9383L58.342 46.7308C56.2669 47.7325 55.1936 49.0921 55.1936 50.881C55.1936 55.4606 61.0611 59.1099 68.2167 59.1099C73.6549 59.1099 78.5923 57.0348 78.5923 52.7414C78.5923 46.4445 65.5691 43.153 60.9896 42.0081C52.8322 39.933 46.3922 35.425 46.3922 26.2658C46.3922 22.545 48.038 18.6094 50.8287 15.6756C55.6229 10.5952 62.85 10.452 68.7892 10.452H71.3652C73.3687 10.452 75.8016 9.80804 78.6638 8.44849L84.3167 19.7543ZM87.4987 16.3912V10.9529H126.425V16.3912H115.477V62.9023H98.9476V16.3912H87.4987ZM149.469 15.3894C143.673 15.3894 140.739 18.6809 140.739 25.2641V49.8792C140.739 55.6752 143.745 58.5374 149.755 58.5374C155.552 58.5374 158.485 55.1743 158.485 48.5197V23.9045C158.485 18.2516 155.48 15.3894 149.469 15.3894ZM123.495 36.9992C123.495 21.6147 135.23 10.1658 149.755 10.1658C164.281 10.1658 176.16 21.6147 176.16 36.9992C176.16 52.3837 164.281 63.5463 149.755 63.761C135.23 63.761 123.495 52.4552 123.495 36.9992ZM180.433 62.9023V10.9529H197.32C214.994 10.9529 223.652 13.8867 223.652 29.2712C223.652 36.4983 221.935 41.2925 218.429 43.797C214.923 46.3014 211.631 47.5894 208.626 47.5894C208.554 47.7325 208.554 48.0188 208.554 48.4481C208.554 51.8828 211.917 55.1743 217.928 55.1743C220.146 55.1743 222.507 54.8166 225.083 54.0294L219.431 65.2637C205.907 63.761 201.184 57.6072 198.751 47.5894H196.962V62.9023H180.433ZM196.962 42.509H199.61C204.69 42.509 207.195 38.1441 207.195 29.3427C207.195 20.5414 204.69 16.1765 199.61 16.1765H196.962V42.509ZM227.171 62.9023V10.9529H243.772V62.9023H227.171ZM283.372 62.9023H249.812V10.9529H283.014L284.23 16.1765H266.413V21.1138H284.302L282.585 27.697L279.293 26.409H266.413V57.7503H283.372V62.9023ZM326.656 19.7543L321.003 22.9027C317.926 17.7507 313.776 15.6756 308.266 15.6756C303.686 15.6756 301.754 17.4645 301.754 19.4681C301.754 20.9707 302.899 22.1872 306.477 23.7614C308.624 24.6916 311.629 25.765 315.708 27.053C325.081 30.0583 331.736 36.2121 331.736 46.5161C331.736 58.1797 321.289 64.0472 311.056 64.0472C301.754 64.0472 289.017 60.2548 289.017 50.237C289.017 48.0903 289.661 45.6574 290.949 42.9383L300.681 46.7308C298.606 47.7325 297.532 49.0921 297.532 50.881C297.532 55.4606 303.4 59.1099 310.556 59.1099C315.994 59.1099 320.931 57.0348 320.931 52.7414C320.931 46.4445 307.908 43.153 303.328 42.0081C295.171 39.933 288.731 35.425 288.731 26.2658C288.731 22.545 290.377 18.6094 293.168 15.6756C297.962 10.5952 305.189 10.452 311.128 10.452H313.704C315.708 10.452 318.14 9.80804 321.003 8.44849L326.656 19.7543Z" fill="white"/>
<path d="M84.3167 19.7543L87.2182 24.9637L92.2007 22.1887L89.6502 17.0876L84.3167 19.7543ZM78.6638 22.9027L73.5444 25.9602L76.5109 30.9273L81.5653 28.1122L78.6638 22.9027ZM64.138 23.7614L61.7365 29.2194L61.7518 29.2261L61.7671 29.2328L64.138 23.7614ZM73.3687 27.053L75.1892 21.3747L75.1768 21.3707L75.1644 21.3668L73.3687 27.053ZM48.6105 42.9383L50.7757 37.3823L45.5996 35.3652L43.2215 40.3856L48.6105 42.9383ZM58.342 46.7308L60.9344 52.1007L73.2667 46.1472L60.5072 41.1748L58.342 46.7308ZM60.9896 42.0081L59.5195 47.787L59.5314 47.79L59.5434 47.793L60.9896 42.0081ZM50.8287 15.6756L55.1492 19.7854L55.1574 19.7768L55.1655 19.7681L50.8287 15.6756ZM78.6638 8.44849L83.9973 5.78176L81.3839 0.55498L76.1054 3.06227L78.6638 8.44849ZM84.3167 19.7543L81.4153 14.5448L75.7624 17.6933L78.6638 22.9027L81.5653 28.1122L87.2182 24.9637L84.3167 19.7543ZM78.6638 22.9027L83.7833 19.8453C81.8065 16.5352 79.2845 13.8968 76.0848 12.1342C72.8985 10.379 69.4402 9.71264 65.9269 9.71264V15.6756V21.6386C67.9234 21.6386 69.2951 22.0097 70.3307 22.5801C71.3527 23.1431 72.4443 24.1182 73.5444 25.9602L78.6638 22.9027ZM65.9269 15.6756V9.71264C62.9696 9.71264 60.0445 10.2736 57.6656 11.8461C55.0841 13.5525 53.4524 16.2976 53.4524 19.4681H59.4154H65.3783C65.3783 19.9508 65.2548 20.4754 64.9867 20.9524C64.7227 21.422 64.4109 21.6833 64.242 21.7949C64.0872 21.8972 64.0892 21.8523 64.3756 21.7832C64.66 21.7146 65.1593 21.6386 65.9269 21.6386V15.6756ZM59.4154 19.4681H53.4524C53.4524 22.1009 54.6022 24.2906 56.3532 25.9348C57.842 27.3328 59.7778 28.3576 61.7365 29.2194L64.138 23.7614L66.5396 18.3034C65.7844 17.9711 65.2638 17.7036 64.9129 17.4973C64.5546 17.2867 64.4673 17.1944 64.5169 17.241C64.5816 17.3017 64.8332 17.5571 65.0541 18.0307C65.2887 18.5336 65.3783 19.0456 65.3783 19.4681H59.4154ZM64.138 23.7614L61.7671 29.2328C64.194 30.2844 67.427 31.4298 71.5731 32.7391L73.3687 27.053L75.1644 21.3668C71.1531 20.1001 68.3754 19.0988 66.509 18.29L64.138 23.7614ZM73.3687 27.053L71.5482 32.7312C75.5474 34.0134 78.5091 35.8269 80.4338 38.0006C82.267 40.0709 83.4342 42.7644 83.4342 46.5161H89.3972H95.3602C95.3602 39.9638 93.2 34.4284 89.3625 30.0945C85.6164 25.8639 80.5639 23.0978 75.1892 21.3747L73.3687 27.053ZM89.3972 46.5161H83.4342C83.4342 50.3287 81.8235 53.0008 79.3115 54.8891C76.6351 56.901 72.7882 58.0843 68.7176 58.0843V64.0472V70.0102C74.8794 70.0102 81.3723 68.2597 86.4776 64.4219C91.7473 60.4605 95.3602 54.3671 95.3602 46.5161H89.3972ZM68.7176 64.0472V58.0843C64.7191 58.0843 60.1945 57.2448 56.9027 55.5785C53.6793 53.947 52.6414 52.1557 52.6414 50.237H46.6785H40.7155C40.7155 58.3361 46.046 63.4499 51.5167 66.219C56.9189 68.9535 63.4138 70.0102 68.7176 70.0102V64.0472ZM46.6785 50.237H52.6414C52.6414 49.2538 52.9473 47.7121 53.9994 45.491L48.6105 42.9383L43.2215 40.3856C41.6976 43.6028 40.7155 46.9268 40.7155 50.237H46.6785ZM48.6105 42.9383L46.4453 48.4943L56.1768 52.2867L58.342 46.7308L60.5072 41.1748L50.7757 37.3823L48.6105 42.9383ZM58.342 46.7308L55.7496 41.3608C52.4597 42.949 49.2306 45.9942 49.2306 50.881H55.1936H61.1565C61.1565 51.0399 61.131 51.2663 61.0442 51.5236C60.9573 51.7816 60.836 51.9899 60.7229 52.1375C60.5149 52.4089 60.4462 52.3364 60.9344 52.1007L58.342 46.7308ZM55.1936 50.881H49.2306C49.2306 55.9435 52.4662 59.6345 55.8477 61.7608C59.3006 63.9319 63.6947 65.0729 68.2167 65.0729V59.1099V53.1469C65.5832 53.1469 63.4657 52.4632 62.1959 51.6648C60.8547 50.8215 61.1565 50.3981 61.1565 50.881H55.1936ZM68.2167 59.1099V65.0729C71.5701 65.0729 75.2501 64.4519 78.3231 62.7574C81.5584 60.9735 84.5553 57.6518 84.5553 52.7414H78.5923H72.6293C72.6293 52.6005 72.6911 52.3605 72.8193 52.1737C72.911 52.04 72.9043 52.1266 72.5645 52.3139C71.8094 52.7303 70.3016 53.1469 68.2167 53.1469V59.1099ZM78.5923 52.7414H84.5553C84.5553 48.9266 82.5451 46.0761 80.5647 44.2191C78.6019 42.3786 76.176 41.0218 73.991 40.0212C69.5953 38.0082 64.6872 36.786 62.4358 36.2232L60.9896 42.0081L59.5434 47.793C61.8715 48.3751 65.7648 49.3711 69.0255 50.8643C70.6688 51.6168 71.7849 52.3352 72.407 52.9186C73.0116 53.4855 72.6293 53.4078 72.6293 52.7414H78.5923ZM60.9896 42.0081L62.4597 36.2292C58.9253 35.3301 56.373 34.0431 54.7672 32.4974C53.3365 31.1202 52.3552 29.2682 52.3552 26.2658H46.3922H40.4293C40.4293 32.4226 42.668 37.4042 46.4966 41.0895C50.1501 44.6064 54.8965 46.611 59.5195 47.787L60.9896 42.0081ZM46.3922 26.2658H52.3552C52.3552 24.2119 53.3146 21.7141 55.1492 19.7854L50.8287 15.6756L46.5082 11.5658C42.7614 15.5047 40.4293 20.878 40.4293 26.2658H46.3922ZM50.8287 15.6756L55.1655 19.7681C57.9358 16.8325 62.4052 16.415 68.7892 16.415V10.452V4.48907C63.2948 4.48907 53.3101 4.35781 46.4918 11.5831L50.8287 15.6756ZM68.7892 10.452V16.415H71.3652V10.452V4.48907H68.7892V10.452ZM71.3652 10.452V16.415C74.5766 16.415 77.9152 15.4056 81.2223 13.8347L78.6638 8.44849L76.1054 3.06227C73.688 4.21052 72.1608 4.48907 71.3652 4.48907V10.452ZM78.6638 8.44849L73.3304 11.1152L78.9833 22.421L84.3167 19.7543L89.6502 17.0876L83.9973 5.78176L78.6638 8.44849ZM87.4987 16.3912H81.5358V22.3541H87.4987V16.3912ZM87.4987 10.9529V4.98997H81.5358V10.9529H87.4987ZM126.425 10.9529H132.388V4.98997H126.425V10.9529ZM126.425 16.3912V22.3541H132.388V16.3912H126.425ZM115.477 16.3912V10.4282H109.514V16.3912H115.477ZM115.477 62.9023V68.8653H121.44V62.9023H115.477ZM98.9476 62.9023H92.9847V68.8653H98.9476V62.9023ZM98.9476 16.3912H104.911V10.4282H98.9476V16.3912ZM87.4987 16.3912H93.4617V10.9529H87.4987H81.5358V16.3912H87.4987ZM87.4987 10.9529V16.9159H126.425V10.9529V4.98997H87.4987V10.9529ZM126.425 10.9529H120.462V16.3912H126.425H132.388V10.9529H126.425ZM126.425 16.3912V10.4282H115.477V16.3912V22.3541H126.425V16.3912ZM115.477 16.3912H109.514V62.9023H115.477H121.44V16.3912H115.477ZM115.477 62.9023V56.9394H98.9476V62.9023V68.8653H115.477V62.9023ZM98.9476 62.9023H104.911V16.3912H98.9476H92.9847V62.9023H98.9476ZM98.9476 16.3912V10.4282H87.4987V16.3912V22.3541H98.9476V16.3912ZM149.756 63.761V69.724H149.8L149.844 69.7233L149.756 63.761ZM149.469 15.3894V9.42641C145.442 9.42641 141.391 10.6041 138.467 13.904C135.665 17.0676 134.777 21.2108 134.777 25.2641H140.739H146.702C146.702 22.7342 147.281 21.9401 147.394 21.8121C147.442 21.7586 147.525 21.6763 147.766 21.5854C148.041 21.4815 148.571 21.3524 149.469 21.3524V15.3894ZM140.739 25.2641H134.777V49.8792H140.739H146.702V25.2641H140.739ZM140.739 49.8792H134.777C134.777 53.7529 135.793 57.7405 138.868 60.687C141.894 63.5877 145.902 64.5004 149.756 64.5004V58.5374V52.5745C148.707 52.5745 148.027 52.4475 147.62 52.3178C147.24 52.1966 147.128 52.0848 147.119 52.0766C147.116 52.0738 147.035 52.0062 146.937 51.7237C146.828 51.4091 146.702 50.8303 146.702 49.8792H140.739ZM149.756 58.5374V64.5004C153.821 64.5004 157.878 63.2814 160.789 59.9422C163.566 56.7565 164.448 52.5961 164.448 48.5197H158.485H152.522C152.522 51.0979 151.938 51.9464 151.799 52.1059C151.794 52.112 151.486 52.5745 149.756 52.5745V58.5374ZM158.485 48.5197H164.448V23.9045H158.485H152.522V48.5197H158.485ZM158.485 23.9045H164.448C164.448 20.0626 163.41 16.1111 160.33 13.1962C157.311 10.339 153.324 9.42641 149.469 9.42641V15.3894V21.3524C150.517 21.3524 151.201 21.4792 151.615 21.61C152.004 21.7331 152.122 21.8479 152.132 21.858C152.136 21.8614 152.209 21.9205 152.299 22.1757C152.401 22.4624 152.522 23.0035 152.522 23.9045H158.485ZM123.495 36.9992H129.458C129.458 24.8657 138.565 16.1288 149.756 16.1288V10.1658V4.20285C131.894 4.20285 117.532 18.3637 117.532 36.9992H123.495ZM149.756 10.1658V16.1288C160.988 16.1288 170.197 24.908 170.197 36.9992H176.16H182.122C182.122 18.3215 167.575 4.20285 149.756 4.20285V10.1658ZM176.16 36.9992H170.197C170.197 48.9907 161.07 57.6302 149.667 57.7987L149.756 63.761L149.844 69.7233C167.492 69.4625 182.122 55.7766 182.122 36.9992H176.16ZM149.756 63.761V57.798C138.534 57.798 129.458 49.1725 129.458 36.9992H123.495H117.532C117.532 55.7379 131.926 69.724 149.756 69.724V63.761ZM180.433 62.9023H174.47V68.8653H180.433V62.9023ZM180.433 10.9529V4.98997H174.47V10.9529H180.433ZM218.429 43.797L214.963 38.9447V38.9447L218.429 43.797ZM208.626 47.5894V41.6265H204.94L203.292 44.9227L208.626 47.5894ZM225.083 54.0294L230.41 56.7097L236.679 44.2512L223.341 48.3267L225.083 54.0294ZM219.431 65.2637L218.772 71.1902L222.893 71.6481L224.757 67.944L219.431 65.2637ZM198.751 47.5894L204.546 46.1822L203.439 41.6265H198.751V47.5894ZM196.962 47.5894V41.6265H190.999V47.5894H196.962ZM196.962 62.9023V68.8653H202.925V62.9023H196.962ZM196.962 42.509H190.999V48.472H196.962V42.509ZM196.962 16.1765V10.2135H190.999V16.1765H196.962ZM180.433 62.9023H186.396V10.9529H180.433H174.47V62.9023H180.433ZM180.433 10.9529V16.9159H197.32V10.9529V4.98997H180.433V10.9529ZM197.32 10.9529V16.9159C206.241 16.9159 211.232 17.7473 214.018 19.4395C215.949 20.6117 217.689 22.7462 217.689 29.2712H223.652H229.615C229.615 20.4116 227.027 13.3871 220.209 9.24631C214.248 5.62541 206.073 4.98997 197.32 4.98997V10.9529ZM223.652 29.2712H217.689C217.689 35.8825 216.076 38.1495 214.963 38.9447L218.429 43.797L221.895 48.6493C227.794 44.4355 229.615 37.1141 229.615 29.2712H223.652ZM218.429 43.797L214.963 38.9447C212.023 41.0449 209.935 41.6265 208.626 41.6265V47.5894V53.5524C213.327 53.5524 217.822 51.558 221.895 48.6493L218.429 43.797ZM208.626 47.5894L203.292 44.9227C202.671 46.1656 202.624 47.3463 202.612 47.5395C202.589 47.9104 202.591 48.3028 202.591 48.4481H208.554H214.517C214.517 48.3311 214.517 48.2724 214.518 48.2275C214.518 48.1816 214.519 48.2127 214.514 48.2834C214.511 48.344 214.497 48.5465 214.445 48.8225C214.397 49.0768 214.278 49.6193 213.959 50.2561L208.626 47.5894ZM208.554 48.4481H202.591C202.591 56.4307 210.038 61.1373 217.928 61.1373V55.1743V49.2114C215.99 49.2114 215.021 48.6854 214.673 48.4123C214.341 48.1508 214.517 48.1218 214.517 48.4481H208.554ZM217.928 55.1743V61.1373C220.802 61.1373 223.751 60.6717 226.826 59.7321L225.083 54.0294L223.341 48.3267C221.264 48.9614 219.491 49.2114 217.928 49.2114V55.1743ZM225.083 54.0294L219.757 51.3492L214.104 62.5834L219.431 65.2637L224.757 67.944L230.41 56.7097L225.083 54.0294ZM219.431 65.2637L220.089 59.3372C214.117 58.6736 210.941 57.0806 209.011 55.2707C207.043 53.4247 205.635 50.67 204.546 46.1822L198.751 47.5894L192.956 48.9967C194.299 54.5266 196.469 59.8578 200.852 63.9688C205.273 68.1159 211.22 70.3511 218.772 71.1902L219.431 65.2637ZM198.751 47.5894V41.6265H196.962V47.5894V53.5524H198.751V47.5894ZM196.962 47.5894H190.999V62.9023H196.962H202.925V47.5894H196.962ZM196.962 62.9023V56.9394H180.433V62.9023V68.8653H196.962V62.9023ZM196.962 42.509V48.472H199.61V42.509V36.546H196.962V42.509ZM199.61 42.509V48.472C204.267 48.472 208.142 46.2548 210.475 42.2007C212.515 38.6574 213.158 34.1092 213.158 29.3427H207.195H201.232C201.232 33.3776 200.622 35.4125 200.139 36.252C199.951 36.5786 199.867 36.5767 199.962 36.5223C200.055 36.4688 200.005 36.546 199.61 36.546V42.509ZM207.195 29.3427H213.158C213.158 24.5763 212.515 20.028 210.475 16.4848C208.142 12.4307 204.267 10.2135 199.61 10.2135V16.1765V22.1395C200.005 22.1395 200.055 22.2166 199.962 22.1632C199.867 22.1087 199.951 22.1068 200.139 22.4335C200.622 23.273 201.232 25.3079 201.232 29.3427H207.195ZM199.61 16.1765V10.2135H196.962V16.1765V22.1395H199.61V16.1765ZM196.962 16.1765H190.999V42.509H196.962H202.925V16.1765H196.962ZM227.171 62.9023H221.208V68.8653H227.171V62.9023ZM227.171 10.9529V4.98997H221.208V10.9529H227.171ZM243.772 10.9529H249.735V4.98997H243.772V10.9529ZM243.772 62.9023V68.8653H249.735V62.9023H243.772ZM227.171 62.9023H233.134V10.9529H227.171H221.208V62.9023H227.171ZM227.171 10.9529V16.9159H243.772V10.9529V4.98997H227.171V10.9529ZM243.772 10.9529H237.809V62.9023H243.772H249.735V10.9529H243.772ZM243.772 62.9023V56.9394H227.171V62.9023V68.8653H243.772V62.9023ZM283.372 62.9023V68.8653H289.335V62.9023H283.372ZM249.812 62.9023H243.849V68.8653H249.812V62.9023ZM249.812 10.9529V4.98997H243.849V10.9529H249.812ZM283.014 10.9529L288.822 9.60049L287.748 4.98997H283.014V10.9529ZM284.23 16.1765V22.1395H291.742L290.038 14.824L284.23 16.1765ZM266.413 16.1765V10.2135H260.45V16.1765H266.413ZM266.413 21.1138H260.45V27.0768H266.413V21.1138ZM284.302 21.1138L290.072 22.619L292.02 15.1509H284.302V21.1138ZM282.585 27.697L280.412 33.2499L286.661 35.6952L288.354 29.2021L282.585 27.697ZM279.293 26.409L281.466 20.856L280.418 20.446H279.293V26.409ZM266.413 26.409V20.446H260.45V26.409H266.413ZM266.413 57.7503H260.45V63.7133H266.413V57.7503ZM283.372 57.7503H289.335V51.7874H283.372V57.7503ZM283.372 62.9023V56.9394H249.812V62.9023V68.8653H283.372V62.9023ZM249.812 62.9023H255.775V10.9529H249.812H243.849V62.9023H249.812ZM249.812 10.9529V16.9159H283.014V10.9529V4.98997H249.812V10.9529ZM283.014 10.9529L277.206 12.3054L278.423 17.5289L284.23 16.1765L290.038 14.824L288.822 9.60049L283.014 10.9529ZM284.23 16.1765V10.2135H266.413V16.1765V22.1395H284.23V16.1765ZM266.413 16.1765H260.45V21.1138H266.413H272.376V16.1765H266.413ZM266.413 21.1138V27.0768H284.302V21.1138V15.1509H266.413V21.1138ZM284.302 21.1138L278.532 19.6087L276.815 26.1918L282.585 27.697L288.354 29.2021L290.072 22.619L284.302 21.1138ZM282.585 27.697L284.758 22.144L281.466 20.856L279.293 26.409L277.12 31.9619L280.412 33.2499L282.585 27.697ZM279.293 26.409V20.446H266.413V26.409V32.3719H279.293V26.409ZM266.413 26.409H260.45V57.7503H266.413H272.376V26.409H266.413ZM266.413 57.7503V63.7133H283.372V57.7503V51.7874H266.413V57.7503ZM283.372 57.7503H277.409V62.9023H283.372H289.335V57.7503H283.372ZM326.656 19.7543L329.557 24.9637L334.54 22.1887L331.989 17.0876L326.656 19.7543ZM321.003 22.9027L315.883 25.9602L318.85 30.9273L323.904 28.1122L321.003 22.9027ZM306.477 23.7614L304.075 29.2194L304.091 29.2261L304.106 29.2328L306.477 23.7614ZM315.708 27.053L317.528 21.3747L317.516 21.3707L317.503 21.3668L315.708 27.053ZM290.949 42.9383L293.115 37.3823L287.938 35.3652L285.56 40.3856L290.949 42.9383ZM300.681 46.7308L303.273 52.1007L315.606 46.1472L302.846 41.1748L300.681 46.7308ZM303.328 42.0081L301.858 47.787L301.87 47.79L301.882 47.793L303.328 42.0081ZM293.168 15.6756L297.488 19.7854L297.496 19.7768L297.504 19.7681L293.168 15.6756ZM321.003 8.44849L326.336 5.78176L323.723 0.55498L318.444 3.06227L321.003 8.44849ZM326.656 19.7543L323.754 14.5448L318.101 17.6933L321.003 22.9027L323.904 28.1122L329.557 24.9637L326.656 19.7543ZM321.003 22.9027L326.122 19.8453C324.145 16.5352 321.623 13.8968 318.424 12.1342C315.237 10.379 311.779 9.71264 308.266 9.71264V15.6756V21.6386C310.262 21.6386 311.634 22.0097 312.67 22.5801C313.692 23.1431 314.783 24.1182 315.883 25.9602L321.003 22.9027ZM308.266 15.6756V9.71264C305.309 9.71264 302.383 10.2736 300.005 11.8461C297.423 13.5525 295.791 16.2976 295.791 19.4681H301.754H307.717C307.717 19.9508 307.594 20.4754 307.326 20.9524C307.062 21.422 306.75 21.6833 306.581 21.7949C306.426 21.8972 306.428 21.8523 306.715 21.7832C306.999 21.7146 307.498 21.6386 308.266 21.6386V15.6756ZM301.754 19.4681H295.791C295.791 22.1009 296.941 24.2906 298.692 25.9348C300.181 27.3328 302.117 28.3576 304.075 29.2194L306.477 23.7614L308.878 18.3034C308.123 17.9711 307.603 17.7036 307.252 17.4973C306.893 17.2867 306.806 17.1944 306.856 17.241C306.92 17.3017 307.172 17.5571 307.393 18.0307C307.628 18.5336 307.717 19.0456 307.717 19.4681H301.754ZM306.477 23.7614L304.106 29.2328C306.533 30.2844 309.766 31.4298 313.912 32.7391L315.708 27.053L317.503 21.3668C313.492 20.1001 310.714 19.0988 308.848 18.29L306.477 23.7614ZM315.708 27.053L313.887 32.7312C317.886 34.0134 320.848 35.8269 322.773 38.0006C324.606 40.0709 325.773 42.7644 325.773 46.5161H331.736H337.699C337.699 39.9638 335.539 34.4284 331.701 30.0945C327.955 25.8639 322.903 23.0978 317.528 21.3747L315.708 27.053ZM331.736 46.5161H325.773C325.773 50.3287 324.162 53.0008 321.65 54.8891C318.974 56.901 315.127 58.0843 311.056 58.0843V64.0472V70.0102C317.218 70.0102 323.711 68.2597 328.816 64.4219C334.086 60.4605 337.699 54.3671 337.699 46.5161H331.736ZM311.056 64.0472V58.0843C307.058 58.0843 302.533 57.2448 299.242 55.5785C296.018 53.947 294.98 52.1557 294.98 50.237H289.017H283.054C283.054 58.3361 288.385 63.4499 293.856 66.219C299.258 68.9535 305.753 70.0102 311.056 70.0102V64.0472ZM289.017 50.237H294.98C294.98 49.2538 295.286 47.7121 296.338 45.491L290.949 42.9383L285.56 40.3856C284.036 43.6028 283.054 46.9268 283.054 50.237H289.017ZM290.949 42.9383L288.784 48.4943L298.516 52.2867L300.681 46.7308L302.846 41.1748L293.115 37.3823L290.949 42.9383ZM300.681 46.7308L298.089 41.3608C294.799 42.949 291.569 45.9942 291.569 50.881H297.532H303.495C303.495 51.0399 303.47 51.2663 303.383 51.5236C303.296 51.7816 303.175 51.9899 303.062 52.1375C302.854 52.4089 302.785 52.3364 303.273 52.1007L300.681 46.7308ZM297.532 50.881H291.569C291.569 55.9435 294.805 59.6345 298.187 61.7608C301.639 63.9319 306.034 65.0729 310.556 65.0729V59.1099V53.1469C307.922 53.1469 305.805 52.4632 304.535 51.6648C303.194 50.8215 303.495 50.3981 303.495 50.881H297.532ZM310.556 59.1099V65.0729C313.909 65.0729 317.589 64.4519 320.662 62.7574C323.897 60.9735 326.894 57.6518 326.894 52.7414H320.931H314.968C314.968 52.6005 315.03 52.3605 315.158 52.1737C315.25 52.04 315.243 52.1266 314.903 52.3139C314.148 52.7303 312.64 53.1469 310.556 53.1469V59.1099ZM320.931 52.7414H326.894C326.894 48.9266 324.884 46.0761 322.904 44.2191C320.941 42.3786 318.515 41.0218 316.33 40.0212C311.934 38.0082 307.026 36.786 304.775 36.2232L303.328 42.0081L301.882 47.793C304.21 48.3751 308.104 49.3711 311.364 50.8643C313.008 51.6168 314.124 52.3352 314.746 52.9186C315.35 53.4855 314.968 53.4078 314.968 52.7414H320.931ZM303.328 42.0081L304.799 36.2292C301.264 35.3301 298.712 34.0431 297.106 32.4974C295.675 31.1202 294.694 29.2682 294.694 26.2658H288.731H282.768C282.768 32.4226 285.007 37.4042 288.835 41.0895C292.489 44.6064 297.235 46.611 301.858 47.787L303.328 42.0081ZM288.731 26.2658H294.694C294.694 24.2119 295.653 21.7141 297.488 19.7854L293.168 15.6756L288.847 11.5658C285.1 15.5047 282.768 20.878 282.768 26.2658H288.731ZM293.168 15.6756L297.504 19.7681C300.275 16.8325 304.744 16.415 311.128 16.415V10.452V4.48907C305.634 4.48907 295.649 4.35781 288.831 11.5831L293.168 15.6756ZM311.128 10.452V16.415H313.704V10.452V4.48907H311.128V10.452ZM313.704 10.452V16.415C316.916 16.415 320.254 15.4056 323.561 13.8347L321.003 8.44849L318.444 3.06227C316.027 4.21052 314.5 4.48907 313.704 4.48907V10.452ZM321.003 8.44849L315.669 11.1152L321.322 22.421L326.656 19.7543L331.989 17.0876L326.336 5.78176L321.003 8.44849Z" fill="#141414" mask="url(#path-1-outside-1_11_2008)"/>
<path d="M23.7003 68.9064C28.9107 66.513 33.8307 64.7999 37.5711 63.9631C39.4427 63.5444 41.0108 63.3475 42.1677 63.3905C42.7462 63.4121 43.2128 63.4937 43.5602 63.631C43.9065 63.768 44.1213 63.9543 44.2251 64.18C44.3379 64.4257 44.352 64.6427 44.286 64.8484C44.2182 65.0596 44.0597 65.2786 43.7913 65.512C43.2508 65.9818 42.3183 66.4657 41.0036 67.0397C38.3975 68.1773 34.3092 69.6569 29.0965 72.0514C26.4846 73.2511 23.8309 74.5706 21.3047 75.8379C18.7773 77.1058 16.3787 78.3211 14.2746 79.3176C12.1684 80.315 10.3669 81.0883 9.03177 81.4733C8.36283 81.6662 7.82546 81.7571 7.43159 81.7377C7.03807 81.7182 6.83092 81.5928 6.74148 81.3981C6.63791 81.1723 6.6365 80.8879 6.75818 80.536C6.8804 80.1828 7.12318 79.7756 7.4839 79.3225C8.20497 78.4169 9.37525 77.3558 10.9122 76.2088C13.984 73.9164 18.4897 71.2999 23.7003 68.9064Z" fill="#00A652" stroke="#141414" stroke-width="0.342637"/>
<path d="M34.323 74.2123C37.2879 71.5472 40.3223 69.9407 42.7467 69.1536C43.9594 68.76 45.0144 68.5734 45.8286 68.5591C46.2359 68.552 46.5782 68.5877 46.8474 68.6597C47.1183 68.7322 47.303 68.8378 47.4117 68.9588C47.5195 69.0789 47.5447 69.1861 47.5222 69.2993C47.4968 69.4267 47.4057 69.5846 47.2233 69.782C46.8585 70.1769 46.2025 70.6558 45.3036 71.2765C43.5173 72.51 40.8342 74.2672 37.8426 76.9562C34.8532 79.6434 32.1189 82.7549 30.004 85.0278C28.9431 86.168 28.0428 87.0917 27.3415 87.6535C26.9894 87.9356 26.7012 88.1147 26.4776 88.1897C26.2597 88.2629 26.1439 88.2273 26.0686 88.1437C25.9717 88.036 25.9057 87.8334 25.9044 87.5126C25.9033 87.1974 25.9647 86.7951 26.0911 86.3194C26.3436 85.3687 26.8469 84.1515 27.573 82.7996C29.025 80.0965 31.3574 76.878 34.323 74.2123Z" fill="#00A652" stroke="#141414" stroke-width="0.342637"/>
<path d="M31.7045 57.9879C34.7291 57.8714 37.4729 58.0207 39.4616 58.3536C40.4572 58.5203 41.2546 58.7315 41.8017 58.9739C42.0756 59.0953 42.2776 59.221 42.4102 59.3453C42.5421 59.4691 42.5932 59.5801 42.5969 59.6773C42.6005 59.7743 42.5581 59.8883 42.4362 60.0216C42.3137 60.1557 42.1219 60.2966 41.8581 60.4387C41.3313 60.7225 40.5525 60.9944 39.5727 61.2372C37.6155 61.7221 34.8914 62.0821 31.8667 62.1987C28.8422 62.3152 26.0992 62.1658 24.1106 61.8329C23.115 61.6663 22.3176 61.455 21.7705 61.2126C21.4965 61.0912 21.2936 60.9655 21.161 60.8412C21.0295 60.7178 20.9782 60.6072 20.9743 60.5103C20.9706 60.4133 21.0131 60.2984 21.135 60.165C21.2575 60.0309 21.4503 59.8899 21.7141 59.7478C22.2409 59.4641 23.0197 59.1921 23.9995 58.9493C25.9566 58.4644 28.68 58.1044 31.7045 57.9879Z" fill="#00A652" stroke="#141414" stroke-width="0.342637"/>
<path d="M351.718 30.2367C348.111 32.5707 344.005 34.3742 340.679 35.4004C339.016 35.9136 337.552 36.2308 336.446 36.3245C335.893 36.3714 335.434 36.3621 335.088 36.2961C334.738 36.2293 334.528 36.1098 334.432 35.9612C334.35 35.8347 334.362 35.6375 334.551 35.3328C334.736 35.0347 335.066 34.6756 335.523 34.2643C336.435 33.4431 337.824 32.4396 339.476 31.3346C342.782 29.1229 347.107 26.5261 350.733 24.1802C352.543 23.0089 354.003 22.0139 355.189 21.2052C356.376 20.3956 357.286 19.7754 358 19.3493C358.719 18.9205 359.219 18.702 359.592 18.6742C359.773 18.6607 359.921 18.6926 360.05 18.7661C360.181 18.8407 360.303 18.9641 360.421 19.1463C360.641 19.487 360.682 20.0467 360.479 20.7965C360.276 21.5414 359.838 22.4498 359.141 23.4611C357.747 25.4833 355.325 27.903 351.718 30.2367Z" fill="#7A78FF" stroke="#141414" stroke-width="0.257129"/>
<path d="M340.708 27.4458C338.793 29.7437 336.712 31.2632 334.996 32.1083C334.137 32.5309 333.374 32.7833 332.771 32.8815C332.469 32.9305 332.211 32.941 332.003 32.9164C331.794 32.8918 331.646 32.8336 331.552 32.7556C331.459 32.678 331.429 32.6005 331.433 32.514C331.438 32.4166 331.489 32.289 331.603 32.1228C331.832 31.7903 332.268 31.3646 332.869 30.807C334.063 29.6989 335.867 28.1055 337.8 25.7869C339.732 23.4699 341.428 20.8648 342.754 18.9495C343.419 17.9888 343.989 17.2068 344.45 16.7142C344.681 16.4667 344.876 16.302 345.034 16.2223C345.188 16.1446 345.278 16.1596 345.343 16.2137C345.426 16.2834 345.497 16.4256 345.532 16.6631C345.567 16.8971 345.564 17.2027 345.522 17.5696C345.436 18.3028 345.194 19.2614 344.8 20.3434C344.012 22.5069 342.624 25.1474 340.708 27.4458Z" fill="#7A78FF" stroke="#141414" stroke-width="0.257129"/>
<path d="M344.396 39.2152C342.163 39.6266 340.109 39.8107 338.597 39.7771C337.839 39.7603 337.224 39.6898 336.792 39.5685C336.575 39.5078 336.412 39.4362 336.3 39.3581C336.189 39.2806 336.139 39.2038 336.125 39.1321C336.112 39.0604 336.131 38.9701 336.208 38.8578C336.284 38.7451 336.412 38.6199 336.592 38.4861C336.953 38.2187 337.503 37.9336 338.204 37.6479C339.606 37.0775 341.59 36.5179 343.824 36.1063C346.058 35.6948 348.112 35.5106 349.624 35.5442C350.381 35.561 350.996 35.6318 351.428 35.753C351.645 35.8137 351.809 35.8851 351.921 35.9632C352.032 36.0409 352.082 36.1186 352.095 36.1903C352.108 36.262 352.089 36.3515 352.013 36.4635C351.936 36.5763 351.808 36.7015 351.628 36.8354C351.267 37.1027 350.718 37.3879 350.017 37.6734C348.615 38.2438 346.63 38.8036 344.396 39.2152Z" fill="#7A78FF" stroke="#141414" stroke-width="0.257129"/>
</svg>
