<svg width="1082" height="327" viewBox="0 0 1082 327" fill="none" xmlns="http://www.w3.org/2000/svg">
<mask id="path-1-outside-1_4_2675" maskUnits="userSpaceOnUse" x="128.938" y="51.4336" width="869" height="208" fill="black">
<rect fill="white" x="128.938" y="51.4336" width="869" height="208"/>
<path d="M257.766 107.504L241.268 116.693C232.288 101.657 220.175 95.6006 204.095 95.6006C190.729 95.6006 185.091 100.822 185.091 106.669C185.091 111.055 188.432 114.605 198.874 119.199C205.139 121.914 213.91 125.047 225.814 128.806C253.172 137.577 272.594 155.537 272.594 185.61C272.594 219.65 242.103 236.775 212.24 236.775C185.091 236.775 147.918 225.707 147.918 196.469C147.918 190.204 149.797 183.104 153.556 175.168L181.958 186.236C175.902 189.16 172.769 193.128 172.769 198.349C172.769 211.714 189.894 222.365 210.778 222.365C226.649 222.365 241.059 216.309 241.059 203.779C241.059 185.401 203.051 175.794 189.685 172.453C165.878 166.397 147.082 153.24 147.082 126.509C147.082 115.649 151.885 104.163 160.03 95.6006C174.022 80.7731 195.115 80.3554 212.448 80.3554H219.967C225.814 80.3554 232.915 78.4759 241.268 74.508L257.766 107.504ZM267.053 97.689V81.8173H380.661V97.689H348.709V233.434H300.467V97.689H267.053ZM447.916 94.7652C431.001 94.7652 422.438 104.372 422.438 123.585V195.425C422.438 212.341 431.209 220.694 448.752 220.694C465.668 220.694 474.23 210.879 474.23 191.457V119.617C474.23 103.119 465.459 94.7652 447.916 94.7652ZM372.108 157.834C372.108 112.934 406.358 79.5201 448.752 79.5201C491.146 79.5201 525.813 112.934 525.813 157.834C525.813 202.734 491.146 235.313 448.752 235.94C406.358 235.94 372.108 202.943 372.108 157.834ZM538.284 233.434V81.8173H587.57C639.153 81.8173 664.423 90.3796 664.423 135.28C664.423 156.372 659.41 170.365 649.177 177.674C638.944 184.983 629.338 188.742 620.567 188.742C620.358 189.16 620.358 189.995 620.358 191.248C620.358 201.273 630.173 210.879 647.715 210.879C654.189 210.879 661.081 209.835 668.599 207.538L652.101 240.325C612.631 235.94 598.847 217.98 591.747 188.742H586.526V233.434H538.284ZM586.526 173.915H594.253C609.08 173.915 616.39 161.176 616.39 135.489C616.39 109.802 609.08 97.0625 594.253 97.0625H586.526V173.915ZM674.693 233.434V81.8173H723.143V233.434H674.693ZM838.716 233.434H740.771V81.8173H837.671L841.222 97.0625H789.221V111.472H841.431L836.418 130.685L826.812 126.926H789.221V218.397H838.716V233.434ZM965.041 107.504L948.543 116.693C939.563 101.657 927.451 95.6006 911.37 95.6006C898.004 95.6006 892.366 100.822 892.366 106.669C892.366 111.055 895.707 114.605 906.149 119.199C912.414 121.914 921.185 125.047 933.089 128.806C960.447 137.577 979.869 155.537 979.869 185.61C979.869 219.65 949.379 236.775 919.515 236.775C892.366 236.775 855.193 225.707 855.193 196.469C855.193 190.204 857.072 183.104 860.831 175.168L889.233 186.236C883.177 189.16 880.044 193.128 880.044 198.349C880.044 211.714 897.169 222.365 918.053 222.365C933.925 222.365 948.334 216.309 948.334 203.779C948.334 185.401 910.326 175.794 896.96 172.453C873.153 166.397 854.357 153.24 854.357 126.509C854.357 115.649 859.161 104.163 867.305 95.6006C881.297 80.7731 902.39 80.3554 919.724 80.3554H927.242C933.089 80.3554 940.19 78.4759 948.543 74.508L965.041 107.504Z"/>
</mask>
<path d="M257.766 107.504L241.268 116.693C232.288 101.657 220.175 95.6006 204.095 95.6006C190.729 95.6006 185.091 100.822 185.091 106.669C185.091 111.055 188.432 114.605 198.874 119.199C205.139 121.914 213.91 125.047 225.814 128.806C253.172 137.577 272.594 155.537 272.594 185.61C272.594 219.65 242.103 236.775 212.24 236.775C185.091 236.775 147.918 225.707 147.918 196.469C147.918 190.204 149.797 183.104 153.556 175.168L181.958 186.236C175.902 189.16 172.769 193.128 172.769 198.349C172.769 211.714 189.894 222.365 210.778 222.365C226.649 222.365 241.059 216.309 241.059 203.779C241.059 185.401 203.051 175.794 189.685 172.453C165.878 166.397 147.082 153.24 147.082 126.509C147.082 115.649 151.885 104.163 160.03 95.6006C174.022 80.7731 195.115 80.3554 212.448 80.3554H219.967C225.814 80.3554 232.915 78.4759 241.268 74.508L257.766 107.504ZM267.053 97.689V81.8173H380.661V97.689H348.709V233.434H300.467V97.689H267.053ZM447.916 94.7652C431.001 94.7652 422.438 104.372 422.438 123.585V195.425C422.438 212.341 431.209 220.694 448.752 220.694C465.668 220.694 474.23 210.879 474.23 191.457V119.617C474.23 103.119 465.459 94.7652 447.916 94.7652ZM372.108 157.834C372.108 112.934 406.358 79.5201 448.752 79.5201C491.146 79.5201 525.813 112.934 525.813 157.834C525.813 202.734 491.146 235.313 448.752 235.94C406.358 235.94 372.108 202.943 372.108 157.834ZM538.284 233.434V81.8173H587.57C639.153 81.8173 664.423 90.3796 664.423 135.28C664.423 156.372 659.41 170.365 649.177 177.674C638.944 184.983 629.338 188.742 620.567 188.742C620.358 189.16 620.358 189.995 620.358 191.248C620.358 201.273 630.173 210.879 647.715 210.879C654.189 210.879 661.081 209.835 668.599 207.538L652.101 240.325C612.631 235.94 598.847 217.98 591.747 188.742H586.526V233.434H538.284ZM586.526 173.915H594.253C609.08 173.915 616.39 161.176 616.39 135.489C616.39 109.802 609.08 97.0625 594.253 97.0625H586.526V173.915ZM674.693 233.434V81.8173H723.143V233.434H674.693ZM838.716 233.434H740.771V81.8173H837.671L841.222 97.0625H789.221V111.472H841.431L836.418 130.685L826.812 126.926H789.221V218.397H838.716V233.434ZM965.041 107.504L948.543 116.693C939.563 101.657 927.451 95.6006 911.37 95.6006C898.004 95.6006 892.366 100.822 892.366 106.669C892.366 111.055 895.707 114.605 906.149 119.199C912.414 121.914 921.185 125.047 933.089 128.806C960.447 137.577 979.869 155.537 979.869 185.61C979.869 219.65 949.379 236.775 919.515 236.775C892.366 236.775 855.193 225.707 855.193 196.469C855.193 190.204 857.072 183.104 860.831 175.168L889.233 186.236C883.177 189.16 880.044 193.128 880.044 198.349C880.044 211.714 897.169 222.365 918.053 222.365C933.925 222.365 948.334 216.309 948.334 203.779C948.334 185.401 910.326 175.794 896.96 172.453C873.153 166.397 854.357 153.24 854.357 126.509C854.357 115.649 859.161 104.163 867.305 95.6006C881.297 80.7731 902.39 80.3554 919.724 80.3554H927.242C933.089 80.3554 940.19 78.4759 948.543 74.508L965.041 107.504Z" fill="white"/>
<path d="M257.766 107.504L266.234 122.708L280.776 114.609L273.332 99.7214L257.766 107.504ZM241.268 116.693L226.327 125.617L234.984 140.113L249.736 131.897L241.268 116.693ZM198.874 119.199L191.865 135.129L191.91 135.148L191.954 135.168L198.874 119.199ZM225.814 128.806L231.127 112.234L231.091 112.222L231.055 112.21L225.814 128.806ZM153.556 175.168L159.875 158.952L144.769 153.065L137.828 167.718L153.556 175.168ZM181.958 186.236L189.524 201.909L225.516 184.533L188.277 170.021L181.958 186.236ZM189.685 172.453L185.395 189.319L185.429 189.328L185.464 189.336L189.685 172.453ZM160.03 95.6006L172.64 107.595L172.664 107.57L172.687 107.545L160.03 95.6006ZM241.268 74.508L256.834 66.725L249.207 51.4705L233.801 58.7881L241.268 74.508ZM257.766 107.504L249.298 92.3004L232.8 101.489L241.268 116.693L249.736 131.897L266.234 122.708L257.766 107.504ZM241.268 116.693L256.209 107.77C250.44 98.1094 243.08 90.4089 233.741 85.2648C224.442 80.1424 214.349 78.1974 204.095 78.1974V95.6006V113.004C209.922 113.004 213.925 114.087 216.947 115.752C219.93 117.395 223.116 120.241 226.327 125.617L241.268 116.693ZM204.095 95.6006V78.1974C195.464 78.1974 186.927 79.8347 179.984 84.424C172.45 89.4043 167.688 97.4158 167.688 106.669H185.091H202.494C202.494 108.078 202.133 109.609 201.351 111.001C200.58 112.372 199.67 113.134 199.177 113.46C198.726 113.759 198.731 113.627 199.567 113.426C200.397 113.226 201.855 113.004 204.095 113.004V95.6006ZM185.091 106.669H167.688C167.688 114.353 171.043 120.744 176.154 125.542C180.499 129.623 186.148 132.613 191.865 135.129L198.874 119.199L205.883 103.27C203.679 102.3 202.159 101.519 201.135 100.917C200.09 100.303 199.835 100.033 199.98 100.169C200.168 100.347 200.903 101.092 201.548 102.474C202.232 103.942 202.494 105.436 202.494 106.669H185.091ZM198.874 119.199L191.954 135.168C199.037 138.237 208.473 141.58 220.573 145.401L225.814 128.806L231.055 112.21C219.348 108.514 211.241 105.591 205.794 103.231L198.874 119.199ZM225.814 128.806L220.501 145.378C232.173 149.12 240.816 154.413 246.434 160.757C251.784 166.799 255.191 174.66 255.191 185.61H272.594H289.997C289.997 166.487 283.693 150.331 272.492 137.683C261.559 125.335 246.813 117.263 231.127 112.234L225.814 128.806ZM272.594 185.61H255.191C255.191 196.737 250.49 204.536 243.158 210.047C235.347 215.918 224.12 219.372 212.24 219.372V236.775V254.178C230.223 254.178 249.173 249.069 264.073 237.869C279.453 226.307 289.997 208.523 289.997 185.61H272.594ZM212.24 236.775V219.372C200.57 219.372 187.365 216.922 177.757 212.059C168.35 207.297 165.321 202.069 165.321 196.469H147.918H130.514C130.514 220.107 146.072 235.032 162.038 243.113C177.805 251.094 196.76 254.178 212.24 254.178V236.775ZM147.918 196.469H165.321C165.321 193.6 166.213 189.1 169.284 182.618L153.556 175.168L137.828 167.718C133.381 177.107 130.514 186.808 130.514 196.469H147.918ZM153.556 175.168L147.237 191.383L175.639 202.452L181.958 186.236L188.277 170.021L159.875 158.952L153.556 175.168ZM181.958 186.236L174.392 170.564C164.79 175.199 155.366 184.087 155.366 198.349H172.769H190.172C190.172 198.813 190.098 199.473 189.845 200.224C189.591 200.977 189.237 201.585 188.907 202.016C188.3 202.808 188.099 202.596 189.524 201.909L181.958 186.236ZM172.769 198.349H155.366C155.366 213.124 164.809 223.896 174.678 230.102C184.756 236.438 197.58 239.768 210.778 239.768V222.365V204.962C203.092 204.962 196.912 202.967 193.206 200.636C189.292 198.175 190.172 196.939 190.172 198.349H172.769ZM210.778 222.365V239.768C220.565 239.768 231.305 237.956 240.274 233.011C249.716 227.804 258.462 218.11 258.462 203.779H241.059H223.656C223.656 203.367 223.836 202.667 224.211 202.122C224.478 201.731 224.459 201.984 223.467 202.531C221.263 203.746 216.862 204.962 210.778 204.962V222.365ZM241.059 203.779H258.462C258.462 192.645 252.596 184.326 246.816 178.906C241.087 173.534 234.007 169.575 227.63 166.654C214.801 160.779 200.477 157.212 193.906 155.569L189.685 172.453L185.464 189.336C192.259 191.035 203.622 193.942 213.138 198.3C217.934 200.496 221.192 202.593 223.007 204.296C224.772 205.95 223.656 205.724 223.656 203.779H241.059ZM189.685 172.453L193.976 155.587C183.66 152.963 176.212 149.207 171.525 144.696C167.349 140.676 164.485 135.271 164.485 126.509H147.082H129.679C129.679 144.477 136.213 159.016 147.387 169.772C158.05 180.036 171.902 185.887 185.395 189.319L189.685 172.453ZM147.082 126.509H164.485C164.485 120.514 167.285 113.224 172.64 107.595L160.03 95.6006L147.421 83.6061C136.486 95.1018 129.679 110.784 129.679 126.509H147.082ZM160.03 95.6006L172.687 107.545C180.772 98.9771 193.817 97.7586 212.448 97.7586V80.3554V62.9523C196.413 62.9523 167.272 62.5692 147.373 83.6564L160.03 95.6006ZM212.448 80.3554V97.7586H219.967V80.3554V62.9523H212.448V80.3554ZM219.967 80.3554V97.7586C229.339 97.7586 239.083 94.8125 248.735 90.2279L241.268 74.508L233.801 58.7881C226.746 62.1393 222.289 62.9523 219.967 62.9523V80.3554ZM241.268 74.508L225.702 82.2909L242.2 115.287L257.766 107.504L273.332 99.7214L256.834 66.725L241.268 74.508ZM267.053 97.689H249.65V115.092H267.053V97.689ZM267.053 81.8173V64.4142H249.65V81.8173H267.053ZM380.661 81.8173H398.064V64.4142H380.661V81.8173ZM380.661 97.689V115.092H398.064V97.689H380.661ZM348.709 97.689V80.2858H331.305V97.689H348.709ZM348.709 233.434V250.837H366.112V233.434H348.709ZM300.467 233.434H283.064V250.837H300.467V233.434ZM300.467 97.689H317.87V80.2858H300.467V97.689ZM267.053 97.689H284.456V81.8173H267.053H249.65V97.689H267.053ZM267.053 81.8173V99.2205H380.661V81.8173V64.4142H267.053V81.8173ZM380.661 81.8173H363.258V97.689H380.661H398.064V81.8173H380.661ZM380.661 97.689V80.2858H348.709V97.689V115.092H380.661V97.689ZM348.709 97.689H331.305V233.434H348.709H366.112V97.689H348.709ZM348.709 233.434V216.03H300.467V233.434V250.837H348.709V233.434ZM300.467 233.434H317.87V97.689H300.467H283.064V233.434H300.467ZM300.467 97.689V80.2858H267.053V97.689V115.092H300.467V97.689ZM448.752 235.94V253.343H448.88L449.009 253.341L448.752 235.94ZM447.916 94.7652V77.3621C436.163 77.3621 424.339 80.7991 415.807 90.4301C407.628 99.6632 405.035 111.755 405.035 123.585H422.438H439.841C439.841 116.201 441.53 113.884 441.861 113.51C441.999 113.354 442.241 113.114 442.944 112.848C443.748 112.545 445.293 112.168 447.916 112.168V94.7652ZM422.438 123.585H405.035V195.425H422.438H439.841V123.585H422.438ZM422.438 195.425H405.035C405.035 206.731 408.002 218.369 416.975 226.968C425.809 235.434 437.505 238.098 448.752 238.098V220.694V203.291C445.692 203.291 443.708 202.921 442.52 202.542C441.409 202.188 441.083 201.862 441.058 201.838C441.049 201.83 440.811 201.633 440.525 200.808C440.207 199.89 439.841 198.201 439.841 195.425H422.438ZM448.752 220.694V238.098C460.617 238.098 472.458 234.54 480.953 224.794C489.058 215.497 491.633 203.355 491.633 191.457H474.23H456.827C456.827 198.982 455.121 201.458 454.715 201.924C454.7 201.941 453.802 203.291 448.752 203.291V220.694ZM474.23 191.457H491.633V119.617H474.23H456.827V191.457H474.23ZM474.23 119.617H491.633C491.633 108.404 488.603 96.8717 479.614 88.3645C470.803 80.0255 459.165 77.3621 447.916 77.3621V94.7652V112.168C450.974 112.168 452.971 112.538 454.178 112.92C455.313 113.28 455.658 113.615 455.689 113.644C455.7 113.654 455.913 113.827 456.176 114.571C456.472 115.408 456.827 116.987 456.827 119.617H474.23ZM372.108 157.834H389.511C389.511 122.422 416.092 96.9232 448.752 96.9232V79.5201V62.1169C396.623 62.1169 354.705 103.446 354.705 157.834H372.108ZM448.752 79.5201V96.9232C481.534 96.9232 508.41 122.546 508.41 157.834H525.813H543.216C543.216 103.323 500.757 62.1169 448.752 62.1169V79.5201ZM525.813 157.834H508.41C508.41 192.832 481.774 218.047 448.495 218.538L448.752 235.94L449.009 253.341C500.517 252.58 543.216 212.637 543.216 157.834H525.813ZM448.752 235.94V218.536C416 218.536 389.511 193.363 389.511 157.834H372.108H354.705C354.705 212.524 396.715 253.343 448.752 253.343V235.94ZM538.284 233.434H520.881V250.837H538.284V233.434ZM538.284 81.8173V64.4142H520.881V81.8173H538.284ZM649.177 177.674L639.062 163.512L639.062 163.512L649.177 177.674ZM620.567 188.742V171.339H609.811L605.001 180.959L620.567 188.742ZM668.599 207.538L684.145 215.36L702.441 179L663.514 190.894L668.599 207.538ZM652.101 240.325L650.179 257.622L662.207 258.958L667.647 248.148L652.101 240.325ZM591.747 188.742L608.659 184.635L605.429 171.339H591.747V188.742ZM586.526 188.742V171.339H569.123V188.742H586.526ZM586.526 233.434V250.837H603.929V233.434H586.526ZM586.526 173.915H569.123V191.318H586.526V173.915ZM586.526 97.0625V79.6593H569.123V97.0625H586.526ZM538.284 233.434H555.688V81.8173H538.284H520.881V233.434H538.284ZM538.284 81.8173V99.2205H587.57V81.8173V64.4142H538.284V81.8173ZM587.57 81.8173V99.2205C613.605 99.2205 628.175 101.647 636.306 106.586C641.939 110.007 647.019 116.237 647.019 135.28H664.422H681.826C681.826 109.423 674.272 88.9214 654.374 76.8364C636.975 66.2687 613.118 64.4142 587.57 64.4142V81.8173ZM664.422 135.28H647.019C647.019 154.575 642.311 161.192 639.062 163.512L649.177 177.674L659.293 191.835C676.51 179.538 681.826 158.17 681.826 135.28H664.422ZM649.177 177.674L639.062 163.512C630.481 169.642 624.387 171.339 620.567 171.339V188.742V206.145C634.289 206.145 647.408 200.325 659.293 191.835L649.177 177.674ZM620.567 188.742L605.001 180.959C603.187 184.587 603.05 188.033 603.015 188.596C602.947 189.679 602.955 190.824 602.955 191.248H620.358H637.761C637.761 190.907 637.761 190.735 637.763 190.604C637.764 190.471 637.766 190.561 637.753 190.768C637.742 190.945 637.702 191.536 637.551 192.341C637.412 193.083 637.062 194.667 636.132 196.525L620.567 188.742ZM620.358 191.248H602.955C602.955 214.546 624.687 228.282 647.715 228.282V210.879V193.476C642.06 193.476 639.231 191.941 638.217 191.144C637.247 190.381 637.761 190.296 637.761 191.248H620.358ZM647.715 210.879V228.282C656.103 228.282 664.711 226.923 673.685 224.181L668.599 207.538L663.514 190.894C657.452 192.746 652.276 193.476 647.715 193.476V210.879ZM668.599 207.538L653.053 199.715L636.555 232.503L652.101 240.325L667.647 248.148L684.145 215.36L668.599 207.538ZM652.101 240.325L654.023 223.029C636.592 221.092 627.323 216.443 621.692 211.16C615.948 205.773 611.839 197.733 608.659 184.635L591.747 188.742L574.835 192.849C578.755 208.989 585.088 224.548 597.879 236.546C610.782 248.649 628.139 255.173 650.179 257.622L652.101 240.325ZM591.747 188.742V171.339H586.526V188.742V206.145H591.747V188.742ZM586.526 188.742H569.123V233.434H586.526H603.929V188.742H586.526ZM586.526 233.434V216.03H538.284V233.434V250.837H586.526V233.434ZM586.526 173.915V191.318H594.253V173.915V156.512H586.526V173.915ZM594.253 173.915V191.318C607.847 191.318 619.156 184.847 625.965 173.015C631.917 162.674 633.793 149.4 633.793 135.489H616.39H598.987C598.987 147.265 597.208 153.203 595.798 155.654C595.25 156.607 595.005 156.601 595.281 156.442C595.552 156.286 595.407 156.512 594.253 156.512V173.915ZM616.39 135.489H633.793C633.793 121.578 631.917 108.303 625.965 97.9621C619.156 86.1302 607.847 79.6593 594.253 79.6593V97.0625V114.466C595.407 114.466 595.552 114.691 595.281 114.535C595.005 114.376 595.25 114.37 595.798 115.324C597.208 117.774 598.987 123.713 598.987 135.489H616.39ZM594.253 97.0625V79.6593H586.526V97.0625V114.466H594.253V97.0625ZM586.526 97.0625H569.123V173.915H586.526H603.929V97.0625H586.526ZM674.693 233.434H657.29V250.837H674.693V233.434ZM674.693 81.8173V64.4142H657.29V81.8173H674.693ZM723.143 81.8173H740.547V64.4142H723.143V81.8173ZM723.143 233.434V250.837H740.547V233.434H723.143ZM674.693 233.434H692.096V81.8173H674.693H657.29V233.434H674.693ZM674.693 81.8173V99.2205H723.143V81.8173V64.4142H674.693V81.8173ZM723.143 81.8173H705.74V233.434H723.143H740.547V81.8173H723.143ZM723.143 233.434V216.03H674.693V233.434V250.837H723.143V233.434ZM838.716 233.434V250.837H856.119V233.434H838.716ZM740.771 233.434H723.368V250.837H740.771V233.434ZM740.771 81.8173V64.4142H723.368V81.8173H740.771ZM837.672 81.8173L854.621 77.8701L851.488 64.4142H837.672V81.8173ZM841.222 97.0625V114.466H863.143L858.171 93.1153L841.222 97.0625ZM789.221 97.0625V79.6593H771.818V97.0625H789.221ZM789.221 111.472H771.818V128.875H789.221V111.472ZM841.431 111.472L858.27 115.865L863.956 94.0691H841.431V111.472ZM836.418 130.685L830.077 146.892L848.315 154.028L853.258 135.078L836.418 130.685ZM826.812 126.926L833.154 110.72L830.096 109.523H826.812V126.926ZM789.221 126.926V109.523H771.818V126.926H789.221ZM789.221 218.397H771.818V235.8H789.221V218.397ZM838.716 218.397H856.119V200.994H838.716V218.397ZM838.716 233.434V216.03H740.771V233.434V250.837H838.716V233.434ZM740.771 233.434H758.174V81.8173H740.771H723.368V233.434H740.771ZM740.771 81.8173V99.2205H837.672V81.8173V64.4142H740.771V81.8173ZM837.672 81.8173L820.722 85.7645L824.272 101.01L841.222 97.0625L858.171 93.1153L854.621 77.8701L837.672 81.8173ZM841.222 97.0625V79.6593H789.221V97.0625V114.466H841.222V97.0625ZM789.221 97.0625H771.818V111.472H789.221H806.624V97.0625H789.221ZM789.221 111.472V128.875H841.431V111.472V94.0691H789.221V111.472ZM841.431 111.472L824.591 107.079L819.579 126.292L836.418 130.685L853.258 135.078L858.27 115.865L841.431 111.472ZM836.418 130.685L842.76 114.479L833.154 110.72L826.812 126.926L820.47 143.133L830.077 146.892L836.418 130.685ZM826.812 126.926V109.523H789.221V126.926V144.329H826.812V126.926ZM789.221 126.926H771.818V218.397H789.221H806.624V126.926H789.221ZM789.221 218.397V235.8H838.716V218.397V200.994H789.221V218.397ZM838.716 218.397H821.313V233.434H838.716H856.119V218.397H838.716ZM965.041 107.504L973.509 122.708L988.051 114.609L980.607 99.7214L965.041 107.504ZM948.543 116.693L933.602 125.617L942.26 140.113L957.011 131.897L948.543 116.693ZM906.149 119.199L899.14 135.129L899.185 135.148L899.229 135.168L906.149 119.199ZM933.089 128.806L938.402 112.234L938.366 112.222L938.33 112.21L933.089 128.806ZM860.831 175.168L867.151 158.952L852.044 153.065L845.103 167.718L860.831 175.168ZM889.233 186.236L896.799 201.909L932.791 184.533L895.552 170.021L889.233 186.236ZM896.96 172.453L892.67 189.319L892.705 189.328L892.739 189.336L896.96 172.453ZM867.305 95.6006L879.915 107.595L879.939 107.57L879.963 107.545L867.305 95.6006ZM948.543 74.508L964.109 66.725L956.482 51.4705L941.076 58.7881L948.543 74.508ZM965.041 107.504L956.573 92.3004L940.075 101.489L948.543 116.693L957.011 131.897L973.509 122.708L965.041 107.504ZM948.543 116.693L963.485 107.77C957.715 98.1094 950.355 90.4089 941.016 85.2648C931.717 80.1424 921.624 78.1974 911.37 78.1974V95.6006V113.004C917.197 113.004 921.2 114.087 924.222 115.752C927.205 117.395 930.391 120.241 933.602 125.617L948.543 116.693ZM911.37 95.6006V78.1974C902.739 78.1974 894.202 79.8347 887.259 84.424C879.725 89.4043 874.963 97.4158 874.963 106.669H892.366H909.769C909.769 108.078 909.409 109.609 908.626 111.001C907.855 112.372 906.945 113.134 906.453 113.46C906.001 113.759 906.007 113.627 906.843 113.426C907.672 113.226 909.13 113.004 911.37 113.004V95.6006ZM892.366 106.669H874.963C874.963 114.353 878.318 120.744 883.429 125.542C887.774 129.623 893.424 132.613 899.14 135.129L906.149 119.199L913.158 103.27C910.954 102.3 909.435 101.519 908.41 100.917C907.365 100.303 907.11 100.033 907.255 100.169C907.444 100.347 908.178 101.092 908.823 102.474C909.507 103.942 909.769 105.436 909.769 106.669H892.366ZM906.149 119.199L899.229 135.168C906.312 138.237 915.748 141.58 927.849 145.401L933.089 128.806L938.33 112.21C926.623 108.514 918.516 105.591 913.069 103.231L906.149 119.199ZM933.089 128.806L927.776 145.378C939.448 149.12 948.092 154.413 953.709 160.757C959.059 166.799 962.466 174.66 962.466 185.61H979.869H997.272C997.272 166.487 990.968 150.331 979.768 137.683C968.834 125.335 954.089 117.263 938.402 112.234L933.089 128.806ZM979.869 185.61H962.466C962.466 196.737 957.765 204.536 950.434 210.047C942.622 215.918 931.395 219.372 919.515 219.372V236.775V254.178C937.498 254.178 956.448 249.069 971.348 237.869C986.728 226.307 997.272 208.523 997.272 185.61H979.869ZM919.515 236.775V219.372C907.845 219.372 894.64 216.922 885.032 212.059C875.625 207.297 872.596 202.069 872.596 196.469H855.193H837.79C837.79 220.107 853.347 235.032 869.313 243.113C885.08 251.094 904.036 254.178 919.515 254.178V236.775ZM855.193 196.469H872.596C872.596 193.6 873.489 189.1 876.559 182.618L860.831 175.168L845.103 167.718C840.656 177.107 837.79 186.808 837.79 196.469H855.193ZM860.831 175.168L854.512 191.383L882.914 202.452L889.233 186.236L895.552 170.021L867.151 158.952L860.831 175.168ZM889.233 186.236L881.667 170.564C872.065 175.199 862.641 184.087 862.641 198.349H880.044H897.448C897.448 198.813 897.373 199.473 897.12 200.224C896.866 200.977 896.512 201.585 896.182 202.016C895.575 202.808 895.375 202.596 896.799 201.909L889.233 186.236ZM880.044 198.349H862.641C862.641 213.124 872.084 223.896 881.953 230.102C892.031 236.438 904.855 239.768 918.053 239.768V222.365V204.962C910.367 204.962 904.187 202.967 900.481 200.636C896.567 198.175 897.448 196.939 897.448 198.349H880.044ZM918.053 222.365V239.768C927.84 239.768 938.58 237.956 947.549 233.011C956.991 227.804 965.738 218.11 965.738 203.779H948.334H930.931C930.931 203.367 931.111 202.667 931.486 202.122C931.753 201.731 931.734 201.984 930.742 202.531C928.538 203.746 924.138 204.962 918.053 204.962V222.365ZM948.334 203.779H965.738C965.738 192.645 959.871 184.326 954.091 178.906C948.362 173.534 941.282 169.575 934.905 166.654C922.076 160.779 907.752 157.212 901.181 155.569L896.96 172.453L892.739 189.336C899.534 191.035 910.897 193.942 920.413 198.3C925.209 200.496 928.467 202.593 930.283 204.296C932.047 205.95 930.931 205.724 930.931 203.779H948.334ZM896.96 172.453L901.251 155.587C890.935 152.963 883.487 149.207 878.8 144.696C874.624 140.676 871.76 135.271 871.76 126.509H854.357H836.954C836.954 144.477 843.488 159.016 854.662 169.772C865.325 180.036 879.177 185.887 892.67 189.319L896.96 172.453ZM854.357 126.509H871.76C871.76 120.514 874.56 113.224 879.915 107.595L867.305 95.6006L854.696 83.6061C843.761 95.1018 836.954 110.784 836.954 126.509H854.357ZM867.305 95.6006L879.963 107.545C888.048 98.9771 901.092 97.7586 919.724 97.7586V80.3554V62.9523C903.688 62.9523 874.547 62.5692 854.648 83.6564L867.305 95.6006ZM919.724 80.3554V97.7586H927.242V80.3554V62.9523H919.724V80.3554ZM927.242 80.3554V97.7586C936.615 97.7586 946.358 94.8125 956.01 90.2279L948.543 74.508L941.076 58.7881C934.021 62.1393 929.564 62.9523 927.242 62.9523V80.3554ZM948.543 74.508L932.977 82.2909L949.476 115.287L965.041 107.504L980.607 99.7214L964.109 66.725L948.543 74.508Z" fill="#141414" mask="url(#path-1-outside-1_4_2675)"/>
<path d="M1025.69 179.264C1023.48 190.104 1026.72 201.405 1034.35 209.423C1023.51 207.211 1012.21 210.454 1004.19 218.078C1006.4 207.238 1003.16 195.937 995.534 187.919C1006.37 190.131 1017.68 186.888 1025.69 179.264Z" fill="#F9FF47" stroke="#141414" stroke-width="3"/>
<path d="M487.797 139.835C485.88 150.731 489.429 161.94 497.268 169.747C486.372 167.831 475.164 171.381 467.357 179.219C469.273 168.323 465.723 157.114 457.884 149.307C468.78 151.224 479.989 147.674 487.797 139.835Z" fill="#F9FF47" stroke="#141414" stroke-width="3"/>
<path d="M80.8549 250.724C96.0627 243.738 110.422 238.737 121.339 236.295C126.802 235.073 131.375 234.498 134.752 234.624C136.441 234.687 137.802 234.924 138.817 235.325C139.828 235.725 140.455 236.271 140.758 236.93C141.087 237.647 141.128 238.278 140.936 238.878C140.738 239.495 140.275 240.134 139.491 240.815C137.914 242.186 135.193 243.599 131.356 245.274C123.75 248.594 111.819 252.914 96.6054 259.902C88.982 263.404 81.2352 267.252 73.862 270.951C66.4857 274.652 59.487 278.2 53.346 281.108C47.1992 284.019 41.9414 286.275 38.0447 287.398C36.0916 287.962 34.5229 288.228 33.3733 288.171C32.2252 288.114 31.6234 287.749 31.3623 287.181C31.0595 286.521 31.0536 285.691 31.4093 284.663C31.766 283.632 32.4731 282.444 33.5259 281.122C35.6303 278.479 39.0464 275.383 43.5323 272.035C52.4975 265.345 65.6472 257.709 80.8549 250.724Z" fill="#00A652" stroke="#141414"/>
<path d="M111.858 266.205C120.511 258.427 129.365 253.736 136.441 251.439C139.981 250.29 143.061 249.746 145.438 249.704C146.626 249.683 147.624 249.789 148.41 249.999C149.2 250.21 149.738 250.517 150.056 250.87C150.371 251.221 150.447 251.535 150.381 251.866C150.307 252.238 150.039 252.699 149.506 253.275C148.442 254.428 146.527 255.822 143.904 257.634C138.691 261.234 130.859 266.363 122.127 274.212C113.403 282.055 105.423 291.136 99.2507 297.77C96.1546 301.097 93.5283 303.792 91.4815 305.432C90.4532 306.256 89.6117 306.779 88.9591 306.998C88.3223 307.212 87.9858 307.106 87.766 306.861C87.4833 306.547 87.2895 305.958 87.2858 305.023C87.2822 304.102 87.4626 302.928 87.8315 301.539C88.5685 298.765 90.0362 295.211 92.1556 291.266C96.3934 283.376 103.203 273.985 111.858 266.205Z" fill="#00A652" stroke="#141414"/>
<path d="M104.216 218.855C113.044 218.515 121.05 218.949 126.854 219.92C129.76 220.407 132.088 221.024 133.685 221.732C134.484 222.086 135.074 222.451 135.461 222.814C135.846 223.175 135.995 223.499 136.006 223.783C136.016 224.066 135.893 224.4 135.537 224.79C135.179 225.181 134.619 225.591 133.849 226.006C132.312 226.835 130.038 227.628 127.178 228.337C121.466 229.752 113.517 230.801 104.69 231.141C95.862 231.481 87.8556 231.047 82.0516 230.076C79.1459 229.589 76.8188 228.972 75.222 228.265C74.4226 227.911 73.8324 227.545 73.4456 227.182C73.0605 226.821 72.9111 226.498 72.9001 226.214C72.8892 225.931 73.0132 225.596 73.3695 225.206C73.7272 224.815 74.2877 224.405 75.0573 223.991C76.595 223.162 78.8675 222.368 81.7274 221.659C87.4394 220.244 95.3887 219.195 104.216 218.855Z" fill="#00A652" stroke="#141414"/>
<path d="M1038.19 137.862C1027.66 144.674 1015.68 149.937 1005.97 152.932C1001.12 154.43 996.844 155.357 993.615 155.63C991.999 155.767 990.663 155.739 989.653 155.547C988.63 155.351 988.017 155.002 987.736 154.568C987.497 154.199 987.532 153.624 988.083 152.734C988.623 151.864 989.587 150.815 990.921 149.614C993.583 147.218 997.636 144.29 1002.46 141.065C1012.11 134.61 1024.73 127.032 1035.31 120.186C1040.59 116.767 1044.86 113.863 1048.32 111.503C1051.78 109.14 1054.44 107.329 1056.52 106.085C1058.62 104.834 1060.08 104.196 1061.17 104.115C1061.7 104.076 1062.13 104.17 1062.51 104.385C1062.89 104.603 1063.24 104.96 1063.59 105.492C1064.23 106.487 1064.35 108.122 1063.75 110.312C1063.16 112.486 1061.89 115.136 1059.85 118.088C1055.78 123.99 1048.71 131.051 1038.19 137.862Z" fill="#7A78FF" stroke="#141414" stroke-width="0.75044"/>
<path d="M1006.05 129.719C1000.46 136.426 994.391 140.861 989.382 143.327C986.877 144.561 984.648 145.297 982.888 145.583C982.007 145.726 981.254 145.755 980.648 145.683C980.038 145.611 979.606 145.441 979.332 145.213C979.06 144.986 978.97 144.762 978.984 144.509C978.999 144.225 979.147 143.853 979.481 143.368C980.148 142.397 981.42 141.156 983.174 139.528C986.659 136.294 991.925 131.643 997.567 124.876C1003.2 118.114 1008.15 110.512 1012.03 104.922C1013.97 102.118 1015.63 99.8337 1016.97 98.3962C1017.65 97.6739 1018.22 97.195 1018.68 96.9622C1019.13 96.7351 1019.39 96.7773 1019.58 96.9352C1019.82 97.1386 1020.03 97.555 1020.13 98.2496C1020.23 98.9326 1020.23 99.8237 1020.1 100.895C1019.85 103.035 1019.14 105.832 1017.99 108.99C1015.69 115.305 1011.65 123.011 1006.05 129.719Z" fill="#7A78FF" stroke="#141414" stroke-width="0.75044"/>
<path d="M1016.82 164.066C1010.3 165.267 1004.3 165.804 999.889 165.706C997.679 165.657 995.884 165.45 994.622 165.096C993.99 164.918 993.513 164.71 993.187 164.482C992.862 164.255 992.716 164.031 992.678 163.821C992.639 163.612 992.695 163.351 992.918 163.023C993.141 162.694 993.514 162.33 994.041 161.939C995.094 161.158 996.696 160.324 998.744 159.491C1002.83 157.826 1008.63 156.193 1015.15 154.992C1021.67 153.791 1027.66 153.253 1032.07 153.351C1034.28 153.4 1036.08 153.608 1037.34 153.962C1037.97 154.139 1038.45 154.348 1038.78 154.576C1039.1 154.802 1039.25 155.026 1039.29 155.235C1039.32 155.445 1039.27 155.707 1039.05 156.034C1038.82 156.364 1038.45 156.728 1037.92 157.119C1036.87 157.899 1035.27 158.733 1033.22 159.567C1029.13 161.231 1023.34 162.865 1016.82 164.066Z" fill="#7A78FF" stroke="#141414" stroke-width="0.75044"/>
<mask id="path-11-inside-2_4_2675" fill="white">
<path d="M110.656 0C134.671 0.00011926 155.111 8.7986 162.76 21.0947C166.303 20.6852 169.969 20.4697 173.723 20.4697C204.253 20.4699 229.005 34.6898 229.043 52.2393C254.4 53.3615 273.512 58.3392 273.512 64.3105C273.512 69.2771 260.291 73.5557 241.252 75.501C234.24 85.3686 193.514 92.9404 144.32 92.9404C110.447 92.9404 80.5873 89.35 62.9854 83.8926C60.4844 84.0206 57.9301 84.0889 55.334 84.0889C24.781 84.0889 0.012432 74.9247 0.0117188 63.6201C0.0117188 52.3153 24.7806 43.1504 55.334 43.1504C56.5612 43.1504 57.779 43.1662 58.9863 43.1953C56.6283 39.6598 55.334 35.8222 55.334 31.8096C55.334 14.2416 80.1029 0 110.656 0Z"/>
</mask>
<path d="M110.656 0C134.671 0.00011926 155.111 8.7986 162.76 21.0947C166.303 20.6852 169.969 20.4697 173.723 20.4697C204.253 20.4699 229.005 34.6898 229.043 52.2393C254.4 53.3615 273.512 58.3392 273.512 64.3105C273.512 69.2771 260.291 73.5557 241.252 75.501C234.24 85.3686 193.514 92.9404 144.32 92.9404C110.447 92.9404 80.5873 89.35 62.9854 83.8926C60.4844 84.0206 57.9301 84.0889 55.334 84.0889C24.781 84.0889 0.012432 74.9247 0.0117188 63.6201C0.0117188 52.3153 24.7806 43.1504 55.334 43.1504C56.5612 43.1504 57.779 43.1662 58.9863 43.1953C56.6283 39.6598 55.334 35.8222 55.334 31.8096C55.334 14.2416 80.1029 0 110.656 0Z" fill="#FFF6C9"/>
<path d="M110.656 0L110.656 -2H110.656V0ZM162.76 21.0947L161.062 22.1512L161.731 23.227L162.989 23.0815L162.76 21.0947ZM173.723 20.4697L173.723 18.4697H173.723V20.4697ZM229.043 52.2393L227.043 52.2435L227.047 54.1529L228.955 54.2373L229.043 52.2393ZM241.252 75.501L241.049 73.5113L240.147 73.6035L239.622 74.3425L241.252 75.501ZM62.9854 83.8926L63.5776 81.9823L63.2381 81.877L62.8831 81.8952L62.9854 83.8926ZM55.334 84.0889V86.0889H55.334L55.334 84.0889ZM0.0117188 63.6201H-1.98828V63.6202L0.0117188 63.6201ZM55.334 43.1504L55.334 41.1504H55.334V43.1504ZM58.9863 43.1953L58.9381 45.1947L62.7858 45.2875L60.6502 42.0856L58.9863 43.1953ZM110.656 0L110.656 2C122.429 2.00006 133.281 4.15828 142.083 7.78552C150.914 11.4245 157.531 16.4759 161.062 22.1512L162.76 21.0947L164.458 20.0383C160.339 13.4175 152.912 7.92148 143.607 4.08721C134.273 0.241146 122.898 -1.99994 110.656 -2L110.656 0ZM162.76 21.0947L162.989 23.0815C166.456 22.6808 170.046 22.4697 173.723 22.4697V20.4697V18.4697C169.893 18.4697 166.15 18.6895 162.53 19.108L162.76 21.0947ZM173.723 20.4697L173.723 22.4697C188.702 22.4698 202.166 25.9626 211.821 31.5078C221.531 37.0843 227.026 44.4882 227.043 52.2435L229.043 52.2393L231.043 52.235C231.022 42.4408 224.123 33.9601 213.814 28.0392C203.45 22.0871 189.273 18.4698 173.723 18.4697L173.723 20.4697ZM229.043 52.2393L228.955 54.2373C241.546 54.7946 252.508 56.3073 260.268 58.3882C264.164 59.4328 267.139 60.591 269.094 61.7742C271.177 63.0345 271.512 63.9468 271.512 64.3105H273.512H275.512C275.512 61.6886 273.458 59.7395 271.165 58.3519C268.744 56.8872 265.356 55.6113 261.304 54.5247C253.169 52.3434 241.897 50.8062 229.131 50.2412L229.043 52.2393ZM273.512 64.3105H271.512C271.512 64.5982 271.314 65.2769 269.964 66.2694C268.663 67.226 266.632 68.2082 263.877 69.1452C258.392 71.011 250.492 72.5464 241.049 73.5113L241.252 75.501L241.455 77.4906C251.05 76.5102 259.281 74.9337 265.165 72.9322C268.095 71.9357 270.56 70.7953 272.333 69.4921C274.057 68.2248 275.512 66.5062 275.512 64.3105H273.512ZM241.252 75.501L239.622 74.3425C238.242 76.2843 234.89 78.4363 229.362 80.517C223.941 82.557 216.783 84.4022 208.247 85.9533C191.183 89.0536 168.827 90.9404 144.32 90.9404V92.9404V94.9404C169.008 94.9404 191.611 93.0414 208.962 89.8888C217.632 88.3135 225.045 86.4156 230.771 84.2606C236.388 82.1463 240.756 79.6514 242.882 76.6595L241.252 75.501ZM144.32 92.9404V90.9404C110.535 90.9404 80.9038 87.3542 63.5776 81.9823L62.9854 83.8926L62.3931 85.8029C80.2708 91.3457 110.358 94.9404 144.32 94.9404V92.9404ZM62.9854 83.8926L62.8831 81.8952C60.4153 82.0215 57.8951 82.0889 55.334 82.0889L55.334 84.0889L55.334 86.0889C57.9651 86.0889 60.5535 86.0197 63.0876 85.89L62.9854 83.8926ZM55.334 84.0889V82.0889C40.2313 82.0889 26.6466 79.8205 16.9098 76.218C12.0336 74.4139 8.2272 72.3134 5.6764 70.0821C3.12153 67.8473 2.01185 65.658 2.01172 63.62L0.0117188 63.6201L-1.98828 63.6202C-1.98805 67.2345 -0.00138653 70.43 3.04284 73.0928C6.09113 75.7593 10.3866 78.0695 15.5218 79.9695C25.8076 83.7751 39.8838 86.0889 55.334 86.0889V84.0889ZM0.0117188 63.6201H2.01172C2.01172 61.582 3.12129 59.3927 5.67608 57.1578C8.22682 54.9264 12.0332 52.8259 16.9094 51.0217C26.6463 47.4189 40.2311 45.1504 55.334 45.1504V43.1504V41.1504C39.8835 41.1504 25.8072 43.4643 15.5213 47.2702C10.3861 49.1703 6.09065 51.4806 3.04243 54.1472C-0.00173876 56.8102 -1.98828 60.0058 -1.98828 63.6201H0.0117188ZM55.334 43.1504L55.334 45.1504C56.544 45.1504 57.7458 45.166 58.9381 45.1947L58.9863 43.1953L59.0345 41.1959C57.8123 41.1664 56.5783 41.1504 55.334 41.1504L55.334 43.1504ZM58.9863 43.1953L60.6502 42.0856C58.4792 38.8306 57.334 35.3731 57.334 31.8096H55.334H53.334C53.334 36.2712 54.7773 40.489 57.3225 44.3051L58.9863 43.1953ZM55.334 31.8096H57.334C57.334 24.0468 62.8234 16.6344 72.5345 11.0506C82.1914 5.49808 95.6652 2 110.656 2V0V-2C95.0939 -2 80.9066 1.62274 70.5407 7.58298C60.229 13.512 53.334 22.0044 53.334 31.8096H55.334Z" fill="#141414" mask="url(#path-11-inside-2_4_2675)"/>
<mask id="path-13-inside-3_4_2675" fill="white">
<path d="M908.519 211.121C932.533 211.121 952.973 219.92 960.622 232.216C964.165 231.806 967.832 231.591 971.585 231.591C1002.11 231.591 1026.87 245.811 1026.91 263.36C1052.26 264.483 1071.37 269.46 1071.37 275.432C1071.37 280.398 1058.15 284.677 1039.11 286.622C1032.1 296.49 991.376 304.062 942.183 304.062C908.309 304.062 878.45 300.471 860.848 295.014C858.347 295.142 855.792 295.21 853.196 295.21C822.643 295.21 797.875 286.046 797.874 274.741C797.874 263.436 822.643 254.271 853.196 254.271C854.423 254.271 855.641 254.287 856.849 254.316C854.491 250.781 853.196 246.943 853.196 242.931C853.196 225.363 877.965 211.121 908.519 211.121Z"/>
</mask>
<path d="M908.519 211.121C932.533 211.121 952.973 219.92 960.622 232.216C964.165 231.806 967.832 231.591 971.585 231.591C1002.11 231.591 1026.87 245.811 1026.91 263.36C1052.26 264.483 1071.37 269.46 1071.37 275.432C1071.37 280.398 1058.15 284.677 1039.11 286.622C1032.1 296.49 991.376 304.062 942.183 304.062C908.309 304.062 878.45 300.471 860.848 295.014C858.347 295.142 855.792 295.21 853.196 295.21C822.643 295.21 797.875 286.046 797.874 274.741C797.874 263.436 822.643 254.271 853.196 254.271C854.423 254.271 855.641 254.287 856.849 254.316C854.491 250.781 853.196 246.943 853.196 242.931C853.196 225.363 877.965 211.121 908.519 211.121Z" fill="#FFF6C9"/>
<path d="M908.519 211.121L908.519 209.121H908.519V211.121ZM960.622 232.216L958.924 233.272L959.593 234.348L960.852 234.203L960.622 232.216ZM971.585 231.591L971.585 229.591H971.585V231.591ZM1026.91 263.36L1024.91 263.365L1024.91 265.274L1026.82 265.358L1026.91 263.36ZM1039.11 286.622L1038.91 284.632L1038.01 284.725L1037.48 285.464L1039.11 286.622ZM860.848 295.014L861.44 293.103L861.1 292.998L860.745 293.016L860.848 295.014ZM853.196 295.21V297.21H853.196L853.196 295.21ZM797.874 274.741H795.874V274.741L797.874 274.741ZM853.196 254.271L853.196 252.271H853.196V254.271ZM856.849 254.316L856.8 256.316L860.648 256.409L858.512 253.207L856.849 254.316ZM908.519 211.121L908.519 213.121C920.291 213.121 931.143 215.279 939.945 218.907C948.776 222.546 955.393 227.597 958.924 233.272L960.622 232.216L962.32 231.159C958.202 224.539 950.774 219.043 941.469 215.208C932.136 211.362 920.76 209.121 908.519 209.121L908.519 211.121ZM960.622 232.216L960.852 234.203C964.318 233.802 967.908 233.591 971.585 233.591V231.591V229.591C967.755 229.591 964.012 229.811 960.392 230.229L960.622 232.216ZM971.585 231.591L971.585 233.591C986.564 233.591 1000.03 237.084 1009.68 242.629C1019.39 248.205 1024.89 255.609 1024.91 263.365L1026.91 263.36L1028.91 263.356C1028.88 253.562 1021.98 245.081 1011.68 239.16C1001.31 233.208 987.135 229.591 971.585 229.591L971.585 231.591ZM1026.91 263.36L1026.82 265.358C1039.41 265.916 1050.37 267.428 1058.13 269.509C1062.03 270.554 1065 271.712 1066.96 272.895C1069.04 274.156 1069.37 275.068 1069.37 275.432H1071.37H1073.37C1073.37 272.81 1071.32 270.861 1069.03 269.473C1066.61 268.008 1063.22 266.732 1059.17 265.646C1051.03 263.464 1039.76 261.927 1026.99 261.362L1026.91 263.36ZM1071.37 275.432H1069.37C1069.37 275.719 1069.18 276.398 1067.83 277.39C1066.52 278.347 1064.49 279.329 1061.74 280.266C1056.25 282.132 1048.35 283.668 1038.91 284.632L1039.11 286.622L1039.32 288.612C1048.91 287.631 1057.14 286.055 1063.03 284.053C1065.96 283.057 1068.42 281.916 1070.2 280.613C1071.92 279.346 1073.37 277.627 1073.37 275.432H1071.37ZM1039.11 286.622L1037.48 285.464C1036.1 287.405 1032.75 289.557 1027.22 291.638C1021.8 293.678 1014.65 295.523 1006.11 297.074C989.045 300.175 966.689 302.062 942.183 302.062V304.062V306.062C966.87 306.062 989.473 304.162 1006.82 301.01C1015.49 299.435 1022.91 297.537 1028.63 295.382C1034.25 293.267 1038.62 290.773 1040.74 287.781L1039.11 286.622ZM942.183 304.062V302.062C908.397 302.062 878.766 298.475 861.44 293.103L860.848 295.014L860.255 296.924C878.133 302.467 908.221 306.062 942.183 306.062V304.062ZM860.848 295.014L860.745 293.016C858.278 293.143 855.757 293.21 853.196 293.21L853.196 295.21L853.196 297.21C855.827 297.21 858.416 297.141 860.95 297.011L860.848 295.014ZM853.196 295.21V293.21C838.094 293.21 824.509 290.942 814.772 287.339C809.896 285.535 806.09 283.435 803.539 281.203C800.984 278.968 799.874 276.779 799.874 274.741L797.874 274.741L795.874 274.741C795.874 278.356 797.861 281.551 800.905 284.214C803.953 286.88 808.249 289.191 813.384 291.091C823.67 294.896 837.746 297.21 853.196 297.21V295.21ZM797.874 274.741H799.874C799.874 272.703 800.984 270.514 803.538 268.279C806.089 266.048 809.895 263.947 814.772 262.143C824.509 258.54 838.093 256.271 853.196 256.271V254.271V252.271C837.746 252.271 823.67 254.585 813.384 258.391C808.248 260.291 803.953 262.602 800.905 265.268C797.861 267.931 795.874 271.127 795.874 274.741H797.874ZM853.196 254.271L853.196 256.271C854.406 256.271 855.608 256.287 856.8 256.316L856.849 254.316L856.897 252.317C855.675 252.288 854.441 252.271 853.196 252.271L853.196 254.271ZM856.849 254.316L858.512 253.207C856.342 249.952 855.196 246.494 855.196 242.931H853.196H851.196C851.196 247.392 852.64 251.61 855.185 255.426L856.849 254.316ZM853.196 242.931H855.196C855.196 235.168 860.686 227.755 870.397 222.172C880.054 216.619 893.527 213.121 908.519 213.121V211.121V209.121C892.956 209.121 878.769 212.744 868.403 218.704C858.091 224.633 851.196 233.126 851.196 242.931H853.196Z" fill="#141414" mask="url(#path-13-inside-3_4_2675)"/>
</svg>
